<svg xmlns="http://www.w3.org/2000/svg" xmlns:xlink="http://www.w3.org/1999/xlink" contentStyleType="text/css" data-diagram-type="CLASS" height="1464px" preserveAspectRatio="none" style="width:1357px;height:1464px;background:#FFFFFF;" version="1.1" viewBox="0 0 1357 1464" width="1357px" zoomAndPan="magnify"><title>RBAC-&#1084;&#1086;&#1076;&#1077;&#1083;&#1100; &#1091;&#1084;&#1085;&#1086;&#1075;&#1086; &#1076;&#1086;&#1084;&#1072;</title><defs/><g><g class="title" data-source-line="2"><text fill="#000000" font-family="sans-serif" font-size="14" font-weight="bold" lengthAdjust="spacing" textLength="195.9992" x="573.7945" y="24.9659">RBAC-&#1084;&#1086;&#1076;&#1077;&#1083;&#1100; &#1091;&#1084;&#1085;&#1086;&#1075;&#1086; &#1076;&#1086;&#1084;&#1072;</text><text fill="#000000" font-family="sans-serif" font-size="14" font-weight="bold" lengthAdjust="spacing" textLength="115.0095" x="614.2894" y="44.0339">(ER-&#1076;&#1080;&#1072;&#1075;&#1088;&#1072;&#1084;&#1084;&#1072;)</text></g><!--class user--><g class="entity" data-entity="user" data-source-line="4" data-uid="ent0002" id="entity_user"><rect fill="#F1F1F1" height="162.4075" rx="2.5" ry="2.5" style="stroke:#181818;stroke-width:0.5;" width="173.5594" x="401.5" y="66.1358"/><ellipse cx="468.7207" cy="82.1358" fill="#ADD1B2" rx="11" ry="11" style="stroke:#181818;stroke-width:1;"/><path d="M465.0801,88.6358 L465.0801,76.4952 L472.7364,76.4952 L472.7364,78.6202 L467.4551,78.6202 L467.4551,81.2765 L472.4707,81.2765 L472.4707,83.4015 L467.4551,83.4015 L467.4551,86.5108 L472.7364,86.5108 L472.7364,88.6358 L465.0801,88.6358 Z " fill="#000000"/><text fill="#000000" font-family="sans-serif" font-size="14" lengthAdjust="spacing" textLength="30.6179" x="489.2207" y="87.5678">User</text><line style="stroke:#181818;stroke-width:0.5;" x1="402.5" x2="574.0594" y1="98.1358" y2="98.1358"/><ellipse cx="412.5" cy="113.1698" fill="#000000" rx="3" ry="3" style="stroke:#000000;stroke-width:1;"/><text fill="#000000" font-family="sans-serif" font-size="14" lengthAdjust="spacing" textLength="72.1837" x="421.5" y="117.1018">user_id: int</text><text fill="#000000" font-family="sans-serif" font-size="14" lengthAdjust="spacing" textLength="91.4617" x="421.5" y="136.1697">username: str</text><text fill="#000000" font-family="sans-serif" font-size="14" lengthAdjust="spacing" textLength="114.7856" x="421.5" y="155.2376">display_name: str</text><text fill="#000000" font-family="sans-serif" font-size="14" lengthAdjust="spacing" textLength="60.9978" x="421.5" y="174.3055">email: str</text><line style="stroke:#181818;stroke-width:1;" x1="402.5" x2="574.0594" y1="182.4075" y2="182.4075"/><text fill="#000000" font-family="sans-serif" font-size="14" lengthAdjust="spacing" textLength="139.4395" x="407.5" y="201.3734">&#171;optional&#187; phone: str</text><text fill="#000000" font-family="sans-serif" font-size="14" lengthAdjust="spacing" textLength="161.5594" x="407.5" y="220.4414">&#171;optional&#187; full_name: str</text></g><g class="entity" data-entity="user_note" data-source-line="15" data-uid="ent0003" id="entity_user_note"><path d="M610.5,89.1358 L610.5,143.1358 L575.58,147.1358 L610.5,151.1358 L610.5,205.3719 A0,0 0 0 0 610.5,205.3719 L1088.2814,205.3719 A0,0 0 0 0 1088.2814,205.3719 L1088.2814,99.1358 L1078.2814,89.1358 L610.5,89.1358 A0,0 0 0 0 610.5,89.1358" fill="#FEFFDD" style="stroke:#181818;stroke-width:0.5;"/><path d="M1078.2814,89.1358 L1078.2814,99.1358 L1088.2814,99.1358 L1078.2814,89.1358" fill="#FEFFDD" style="stroke:#181818;stroke-width:0.5;"/><text fill="#000000" font-family="sans-serif" font-size="13" lengthAdjust="spacing" textLength="352.2483" x="616.5" y="108.0328">- &#1087;&#1086;&#1083;&#1100;&#1079;&#1086;&#1074;&#1072;&#1090;&#1077;&#1083;&#1100; &#1084;&#1086;&#1078;&#1077;&#1090; &#1086;&#1090;&#1085;&#1086;&#1089;&#1080;&#1090;&#1100;&#1089;&#1103; &#1082; &#1085;&#1077;&#1089;&#1082;&#1086;&#1083;&#1100;&#1082;&#1080;&#1084; &#1076;&#1086;&#1084;&#1072;&#1084;</text><text fill="#000000" font-family="sans-serif" font-size="13" lengthAdjust="spacing" textLength="456.7814" x="616.5" y="125.7389">(&#1085;&#1072;&#1087;&#1088;&#1080;&#1084;&#1077;&#1088;, &#1089;&#1086;&#1090;&#1088;&#1091;&#1076;&#1085;&#1080;&#1082; &#1090;&#1077;&#1093;&#1087;&#1086;&#1076;&#1076;&#1077;&#1088;&#1078;&#1082;&#1080; &#1080;&#1083;&#1080; &#1074;&#1083;&#1072;&#1076;&#1077;&#1083;&#1077;&#1094; &#1085;&#1077;&#1089;&#1082;&#1086;&#1083;&#1100;&#1082;&#1080;&#1093; &#1076;&#1086;&#1084;&#1086;&#1074;);</text><text fill="#000000" font-family="sans-serif" font-size="13" lengthAdjust="spacing" textLength="3.38" x="616.5" y="143.4449">&#160;</text><text fill="#000000" font-family="sans-serif" font-size="13" lengthAdjust="spacing" textLength="345.2152" x="616.5" y="161.1509">- &#1074; &#1086;&#1076;&#1085;&#1086;&#1084; &#1076;&#1086;&#1084;&#1077; &#1084;&#1086;&#1078;&#1077;&#1090; &#1073;&#1099;&#1090;&#1100; &#1085;&#1077;&#1089;&#1082;&#1086;&#1083;&#1100;&#1082;&#1086; &#1087;&#1086;&#1083;&#1100;&#1079;&#1086;&#1074;&#1072;&#1090;&#1077;&#1083;&#1077;&#1081;</text><text fill="#000000" font-family="sans-serif" font-size="13" lengthAdjust="spacing" textLength="315.8353" x="616.5" y="178.8569">(&#1085;&#1072;&#1087;&#1088;&#1080;&#1084;&#1077;&#1088;, &#1074;&#1083;&#1072;&#1076;&#1077;&#1083;&#1077;&#1094; &#1080; &#1089;&#1086;&#1090;&#1088;&#1091;&#1076;&#1085;&#1080;&#1082; &#1090;&#1077;&#1093;&#1087;&#1086;&#1076;&#1076;&#1077;&#1088;&#1078;&#1082;&#1080;,</text><text fill="#000000" font-family="sans-serif" font-size="13" lengthAdjust="spacing" textLength="179.0882" x="616.5" y="196.5629">&#1082;&#1086;&#1090;&#1086;&#1088;&#1099;&#1081; &#1082;&#1091;&#1088;&#1080;&#1088;&#1091;&#1077;&#1090; &#1101;&#1090;&#1086;&#1090; &#1076;&#1086;&#1084;)</text></g><!--class user_role_grant--><g class="entity" data-entity="user_role_grant" data-source-line="25" data-uid="ent0005" id="entity_user_role_grant"><rect fill="#F1F1F1" height="143.3396" rx="2.5" ry="2.5" style="stroke:#181818;stroke-width:0.5;" width="256.3691" x="414.5" y="1314.1358"/><ellipse cx="490.0157" cy="1330.1358" fill="#ADD1B2" rx="11" ry="11" style="stroke:#181818;stroke-width:1;"/><path d="M486.3751,1336.6358 L486.3751,1324.4952 L494.0313,1324.4952 L494.0313,1326.6202 L488.7501,1326.6202 L488.7501,1329.2765 L493.7657,1329.2765 L493.7657,1331.4015 L488.7501,1331.4015 L488.7501,1334.5108 L494.0313,1334.5108 L494.0313,1336.6358 L486.3751,1336.6358 Z " fill="#000000"/><text fill="#000000" font-family="sans-serif" font-size="14" lengthAdjust="spacing" textLength="96.8376" x="510.5157" y="1335.5678">UserRoleGrant</text><line style="stroke:#181818;stroke-width:0.5;" x1="415.5" x2="669.8691" y1="1346.1358" y2="1346.1358"/><ellipse cx="425.5" cy="1361.1698" fill="#000000" rx="3" ry="3" style="stroke:#000000;stroke-width:1;"/><text fill="#000000" font-family="sans-serif" font-size="14" lengthAdjust="spacing" textLength="36.9319" x="434.5" y="1365.1018">id: int</text><text fill="#000000" font-family="sans-serif" font-size="14" lengthAdjust="spacing" textLength="220.8491" x="434.5" y="1384.1697">&#171;unique&#187; user_id, role_id: (int, int)</text><line style="stroke:#181818;stroke-width:1;" x1="415.5" x2="669.8691" y1="1392.2717" y2="1392.2717"/><text fill="#000000" font-family="sans-serif" font-size="14" lengthAdjust="spacing" textLength="205.7152" x="420.5" y="1411.2376">&#171;optional&#187; expires_at: datetime</text><text fill="#000000" font-family="sans-serif" font-size="14" lengthAdjust="spacing" textLength="244.3691" x="420.5" y="1430.3055">&#171;optional&#187; created_by_by_user_id: int</text><text fill="#000000" font-family="sans-serif" font-size="14" lengthAdjust="spacing" textLength="207.6192" x="420.5" y="1449.3734">&#171;optional&#187; created_at: datetime</text></g><g class="entity" data-entity="user_role_grant_note" data-source-line="37" data-uid="ent0007" id="entity_user_role_grant_note"><path d="M6,1371.6358 L6,1399.3419 A0,0 0 0 0 6,1399.3419 L378.6373,1399.3419 A0,0 0 0 0 378.6373,1399.3419 L378.6373,1389.6358 L414.22,1385.6358 L378.6373,1381.6358 L378.6373,1381.6358 L368.6373,1371.6358 L6,1371.6358 A0,0 0 0 0 6,1371.6358" fill="#FEFFDD" style="stroke:#181818;stroke-width:0.5;"/><path d="M368.6373,1371.6358 L368.6373,1381.6358 L378.6373,1381.6358 L368.6373,1371.6358" fill="#FEFFDD" style="stroke:#181818;stroke-width:0.5;"/><text fill="#000000" font-family="sans-serif" font-size="13" lengthAdjust="spacing" textLength="351.6373" x="12" y="1390.5328">&#1042;&#1099;&#1076;&#1072;&#1095;&#1072; &#1088;&#1086;&#1083;&#1077;&#1081; &#1087;&#1086;&#1083;&#1100;&#1079;&#1086;&#1074;&#1072;&#1090;&#1077;&#1083;&#1103;&#1084; &#1084;&#1086;&#1078;&#1077;&#1090; &#1073;&#1099;&#1090;&#1100; &#1074;&#1088;&#1077;&#1084;&#1077;&#1085;&#1085;&#1086;&#1081;!</text></g><!--class house--><g class="entity" data-entity="house" data-source-line="43" data-uid="ent0009" id="entity_house"><rect fill="#F1F1F1" height="124.2717" rx="2.5" ry="2.5" style="stroke:#181818;stroke-width:0.5;" width="199.0113" x="632" y="364.1358"/><ellipse cx="706.2067" cy="380.1358" fill="#ADD1B2" rx="11" ry="11" style="stroke:#181818;stroke-width:1;"/><path d="M702.5661,386.6358 L702.5661,374.4952 L710.2224,374.4952 L710.2224,376.6202 L704.9411,376.6202 L704.9411,379.2765 L709.9567,379.2765 L709.9567,381.4015 L704.9411,381.4015 L704.9411,384.5108 L710.2224,384.5108 L710.2224,386.6358 L702.5661,386.6358 Z " fill="#000000"/><text fill="#000000" font-family="sans-serif" font-size="14" lengthAdjust="spacing" textLength="42.0978" x="726.7067" y="385.5678">House</text><line style="stroke:#181818;stroke-width:0.5;" x1="633" x2="830.0113" y1="396.1358" y2="396.1358"/><text fill="#000000" font-family="sans-serif" font-size="14" lengthAdjust="spacing" textLength="83.5237" x="638" y="415.1018">house_id: int</text><text fill="#000000" font-family="sans-serif" font-size="14" lengthAdjust="spacing" textLength="62.4258" x="638" y="434.1697">name: str</text><line style="stroke:#181818;stroke-width:1;" x1="633" x2="830.0113" y1="442.2717" y2="442.2717"/><text fill="#000000" font-family="sans-serif" font-size="14" lengthAdjust="spacing" textLength="187.0113" x="638" y="461.2376">&#171;optional&#187; display_name: str</text><text fill="#000000" font-family="sans-serif" font-size="14" lengthAdjust="spacing" textLength="124.3896" x="638" y="480.3055">&#171;optional&#187; address</text></g><g class="entity" data-entity="house_note" data-source-line="52" data-uid="ent0010" id="entity_house_note"><path d="M298.5,403.6358 L298.5,449.0479 A0,0 0 0 0 298.5,449.0479 L596.9593,449.0479 A0,0 0 0 0 596.9593,449.0479 L596.9593,430.1358 L631.99,426.1358 L596.9593,422.1358 L596.9593,413.6358 L586.9593,403.6358 L298.5,403.6358 A0,0 0 0 0 298.5,403.6358" fill="#FEFFDD" style="stroke:#181818;stroke-width:0.5;"/><path d="M586.9593,403.6358 L586.9593,413.6358 L596.9593,413.6358 L586.9593,403.6358" fill="#FEFFDD" style="stroke:#181818;stroke-width:0.5;"/><text fill="#000000" font-family="sans-serif" font-size="13" lengthAdjust="spacing" textLength="277.4593" x="304.5" y="422.5328">&#1054;&#1076;&#1080;&#1085; &#1076;&#1086;&#1084; -- &#1086;&#1076;&#1080;&#1085; &#1082;&#1086;&#1085;&#1090;&#1088;&#1086;&#1083;&#1083;&#1077;&#1088; &#1091;&#1084;&#1085;&#1086;&#1075;&#1086; &#1076;&#1086;&#1084;&#1072;.</text><text fill="#000000" font-family="sans-serif" font-size="13" lengthAdjust="spacing" textLength="172.2502" x="304.5" y="440.2389">&#1054;&#1073;&#1099;&#1095;&#1085;&#1086; &#1086;&#1076;&#1080;&#1085; &#1085;&#1072; &#1082;&#1074;&#1072;&#1088;&#1090;&#1080;&#1088;&#1091;.</text></g><!--class role--><g class="entity" data-entity="role" data-source-line="59" data-uid="ent0013" id="entity_role"><rect fill="#F1F1F1" height="124.2717" rx="2.5" ry="2.5" style="stroke:#181818;stroke-width:0.5;" width="217.7152" x="730.5" y="1089.6358"/><ellipse cx="820.7647" cy="1105.6358" fill="#ADD1B2" rx="11" ry="11" style="stroke:#181818;stroke-width:1;"/><path d="M817.1241,1112.1358 L817.1241,1099.9952 L824.7803,1099.9952 L824.7803,1102.1202 L819.4991,1102.1202 L819.4991,1104.7765 L824.5147,1104.7765 L824.5147,1106.9015 L819.4991,1106.9015 L819.4991,1110.0108 L824.7803,1110.0108 L824.7803,1112.1358 L817.1241,1112.1358 Z " fill="#000000"/><text fill="#000000" font-family="sans-serif" font-size="14" lengthAdjust="spacing" textLength="28.6859" x="841.2647" y="1111.0678">Role</text><line style="stroke:#181818;stroke-width:0.5;" x1="731.5" x2="947.2152" y1="1121.6358" y2="1121.6358"/><ellipse cx="741.5" cy="1136.6698" fill="#000000" rx="3" ry="3" style="stroke:#000000;stroke-width:1;"/><text fill="#000000" font-family="sans-serif" font-size="14" lengthAdjust="spacing" textLength="36.9319" x="750.5" y="1140.6018">id: int</text><text fill="#000000" font-family="sans-serif" font-size="14" lengthAdjust="spacing" textLength="62.4258" x="750.5" y="1159.6697">name: str</text><line style="stroke:#181818;stroke-width:1;" x1="731.5" x2="947.2152" y1="1167.7717" y2="1167.7717"/><text fill="#000000" font-family="sans-serif" font-size="14" lengthAdjust="spacing" textLength="170.8834" x="736.5" y="1186.7376">&#171;optional&#187; description: str</text><text fill="#000000" font-family="sans-serif" font-size="14" lengthAdjust="spacing" textLength="205.7152" x="736.5" y="1205.8055">&#171;optional&#187; expires_at: datetime</text></g><g class="entity" data-entity="role_note" data-source-line="68" data-uid="ent0014" id="entity_role_note"><path d="M298,1049.1358 L298,1253.902 A0,0 0 0 0 298,1253.902 L694.6873,1253.902 A0,0 0 0 0 694.6873,1253.902 L694.6873,1155.6358 L730.38,1151.6358 L694.6873,1147.6358 L694.6873,1059.1358 L684.6873,1049.1358 L298,1049.1358 A0,0 0 0 0 298,1049.1358" fill="#FEFFDD" style="stroke:#181818;stroke-width:0.5;"/><path d="M684.6873,1049.1358 L684.6873,1059.1358 L694.6873,1059.1358 L684.6873,1049.1358" fill="#FEFFDD" style="stroke:#181818;stroke-width:0.5;"/><text fill="#000000" font-family="sans-serif" font-size="13" lengthAdjust="spacing" textLength="375.6873" x="304" y="1068.0328">&#1055;&#1088;&#1080;&#1084;&#1077;&#1088;&#1099; &#1088;&#1086;&#1083;&#1077;&#1081;: &#171;&#1074;&#1083;&#1072;&#1076;&#1077;&#1083;&#1077;&#1094; &#1076;&#1086;&#1084;&#1072; 18&#187;, &#171;&#1074;&#1083;&#1072;&#1076;&#1077;&#1083;&#1077;&#1094; &#1076;&#1086;&#1084;&#1072; 16&#187;,</text><text fill="#000000" font-family="sans-serif" font-size="13" lengthAdjust="spacing" textLength="253.8642" x="304" y="1085.7389">&#171;&#1072;&#1088;&#1077;&#1085;&#1076;&#1072;&#1090;&#1086;&#1088; &#1076;&#1086;&#1084;&#1072; 14&#187;, &#171;&#1078;&#1080;&#1083;&#1077;&#1094; &#1076;&#1086;&#1084;&#1072; 14&#187;,</text><text fill="#000000" font-family="sans-serif" font-size="13" lengthAdjust="spacing" textLength="177.8792" x="304" y="1103.4449">&#171;&#1089;&#1086;&#1090;&#1088;&#1091;&#1076;&#1085;&#1080;&#1082; &#1090;&#1077;&#1093;&#1087;&#1086;&#1076;&#1076;&#1077;&#1088;&#1078;&#1082;&#1080;&#187;.</text><text fill="#000000" font-family="sans-serif" font-size="13" lengthAdjust="spacing" textLength="3.38" x="304" y="1121.1509">&#160;</text><text fill="#000000" font-family="sans-serif" font-size="13" lengthAdjust="spacing" textLength="304.4993" x="304" y="1138.8569">&#1056;&#1086;&#1083;&#1080; &#1087;&#1088;&#1080;&#1074;&#1103;&#1079;&#1072;&#1085;&#1099; &#1082; &#1082;&#1086;&#1085;&#1082;&#1088;&#1077;&#1090;&#1085;&#1099;&#1084; &#1087;&#1086;&#1083;&#1100;&#1079;&#1086;&#1074;&#1072;&#1090;&#1077;&#1083;&#1103;&#1084;.</text><text fill="#000000" font-family="sans-serif" font-size="13" lengthAdjust="spacing" textLength="3.38" x="304" y="1156.5629">&#160;</text><text fill="#000000" font-family="sans-serif" font-size="13" lengthAdjust="spacing" textLength="312.0782" x="304" y="1174.2689">&#1056;&#1072;&#1079;&#1088;&#1077;&#1096;&#1077;&#1085;&#1080;&#1103; &#1085;&#1072; &#1101;&#1090;&#1080; &#1088;&#1086;&#1083;&#1080; &#1076;&#1086;&#1073;&#1072;&#1074;&#1083;&#1103;&#1102;&#1090;&#1089;&#1103; &#1086;&#1090;&#1076;&#1077;&#1083;&#1100;&#1085;&#1086;,</text><text fill="#000000" font-family="sans-serif" font-size="13" lengthAdjust="spacing" textLength="288.4962" x="304" y="1191.975">&#1095;&#1077;&#1088;&#1077;&#1079; &#1089;&#1087;&#1077;&#1094;&#1080;&#1072;&#1083;&#1100;&#1085;&#1091;&#1102; &#1072;&#1089;&#1089;&#1086;&#1094;&#1080;&#1072;&#1090;&#1080;&#1074;&#1085;&#1091;&#1102; &#1090;&#1072;&#1073;&#1083;&#1080;&#1094;&#1091;.</text><text fill="#000000" font-family="sans-serif" font-size="13" lengthAdjust="spacing" textLength="3.38" x="304" y="1209.681">&#160;</text><text fill="#000000" font-family="sans-serif" font-size="13" lengthAdjust="spacing" textLength="328.2372" x="304" y="1227.387">&#1057;&#1072;&#1084;&#1080; &#1088;&#1086;&#1083;&#1080; &#1090;&#1086;&#1078;&#1077; &#1084;&#1086;&#1075;&#1091;&#1090; &#1080;&#1084;&#1077;&#1090;&#1100; &#1074;&#1088;&#1077;&#1084;&#1077;&#1085;&#1085;&#1099;&#1081; &#1093;&#1072;&#1088;&#1072;&#1082;&#1090;&#1077;&#1088;.</text><text fill="#000000" font-family="sans-serif" font-size="13" lengthAdjust="spacing" textLength="3.38" x="304" y="1245.093">&#160;</text></g><!--class permission--><g class="entity" data-entity="permission" data-source-line="85" data-uid="ent0017" id="entity_permission"><rect fill="#F1F1F1" height="162.4075" rx="2.5" ry="2.5" style="stroke:#181818;stroke-width:0.5;" width="233.1291" x="723" y="624.1358"/><ellipse cx="798.8167" cy="640.1358" fill="#ADD1B2" rx="11" ry="11" style="stroke:#181818;stroke-width:1;"/><path d="M795.1761,646.6358 L795.1761,634.4952 L802.8323,634.4952 L802.8323,636.6202 L797.5511,636.6202 L797.5511,639.2765 L802.5667,639.2765 L802.5667,641.4015 L797.5511,641.4015 L797.5511,644.5108 L802.8323,644.5108 L802.8323,646.6358 L795.1761,646.6358 Z " fill="#000000"/><text fill="#000000" font-family="sans-serif" font-size="14" lengthAdjust="spacing" textLength="72.9957" x="819.3167" y="645.5678">Permission</text><line style="stroke:#181818;stroke-width:0.5;" x1="724" x2="955.1291" y1="656.1358" y2="656.1358"/><ellipse cx="734" cy="671.1698" fill="#000000" rx="3" ry="3" style="stroke:#000000;stroke-width:1;"/><text fill="#000000" font-family="sans-serif" font-size="14" lengthAdjust="spacing" textLength="36.9319" x="743" y="675.1018">id: int</text><text fill="#000000" font-family="sans-serif" font-size="14" lengthAdjust="spacing" textLength="62.4258" x="743" y="694.1697">name: str</text><line style="stroke:#181818;stroke-width:1;" x1="724" x2="955.1291" y1="702.2717" y2="702.2717"/><text fill="#000000" font-family="sans-serif" font-size="14" lengthAdjust="spacing" textLength="155.7494" x="729" y="721.2376">&#171;optional&#187; house_id: int</text><text fill="#000000" font-family="sans-serif" font-size="14" lengthAdjust="spacing" textLength="221.1291" x="729" y="740.3055">&#171;optional&#187; house_item_uuid: uuid</text><text fill="#000000" font-family="sans-serif" font-size="14" lengthAdjust="spacing" textLength="170.8834" x="729" y="759.3734">&#171;optional&#187; description: str</text><text fill="#000000" font-family="sans-serif" font-size="14" lengthAdjust="spacing" textLength="187.0113" x="729" y="778.4414">&#171;optional&#187; display_name: str</text></g><g class="entity" data-entity="permission_note" data-source-line="99" data-uid="ent0019" id="entity_permission_note"><path d="M866.5,288.1358 L866.5,563.7261 A0,0 0 0 0 866.5,563.7261 L953.53,563.7261 L907.22,623.9758 L961.53,563.7261 L1280.3733,563.7261 A0,0 0 0 0 1280.3733,563.7261 L1280.3733,298.1358 L1270.3733,288.1358 L866.5,288.1358 A0,0 0 0 0 866.5,288.1358" fill="#FEFFDD" style="stroke:#181818;stroke-width:0.5;"/><path d="M1270.3733,288.1358 L1270.3733,298.1358 L1280.3733,298.1358 L1270.3733,288.1358" fill="#FEFFDD" style="stroke:#181818;stroke-width:0.5;"/><text fill="#000000" font-family="sans-serif" font-size="13" lengthAdjust="spacing" textLength="319.4363" x="872.5" y="307.0328">&#1056;&#1072;&#1079;&#1088;&#1077;&#1096;&#1077;&#1085;&#1080;&#1103; &#1087;&#1088;&#1080;&#1074;&#1103;&#1079;&#1072;&#1085;&#1099; &#1082; &#1082;&#1086;&#1085;&#1082;&#1088;&#1077;&#1090;&#1085;&#1099;&#1084; &#1076;&#1077;&#1081;&#1089;&#1090;&#1074;&#1080;&#1103;&#1084;</text><text fill="#000000" font-family="sans-serif" font-size="13" lengthAdjust="spacing" textLength="242.1382" x="872.5" y="324.7389">&#1089; &#1086;&#1073;&#1086;&#1088;&#1091;&#1076;&#1086;&#1074;&#1072;&#1085;&#1080;&#1077;&#1084; &#1080; &#1055;&#1054; &#1074; &#1091;&#1084;&#1085;&#1086;&#1084; &#1076;&#1086;&#1084;&#1077;.</text><text fill="#000000" font-family="sans-serif" font-size="13" lengthAdjust="spacing" textLength="3.38" x="872.5" y="342.4449">&#160;</text><text fill="#000000" font-family="sans-serif" font-size="13" lengthAdjust="spacing" textLength="228.9431" x="872.5" y="360.1509">- &#1084;&#1086;&#1075;&#1091;&#1090; &#1080;&#1084;&#1077;&#1090;&#1100; &#1075;&#1083;&#1086;&#1073;&#1072;&#1083;&#1100;&#1085;&#1099;&#1081; &#1093;&#1072;&#1088;&#1072;&#1082;&#1090;&#1077;&#1088;</text><text fill="#000000" font-family="sans-serif" font-size="13" lengthAdjust="spacing" textLength="261.2742" x="872.5" y="377.8569">(&#1085;&#1072;&#1087;&#1088;&#1080;&#1084;&#1077;&#1088;, &#1087;&#1088;&#1072;&#1074;&#1072; &#1085;&#1072; &#1087;&#1088;&#1086;&#1089;&#1084;&#1086;&#1090;&#1088; &#1076;&#1072;&#1090;&#1095;&#1080;&#1082;&#1086;&#1074;</text><text fill="#000000" font-family="sans-serif" font-size="13" lengthAdjust="spacing" textLength="303.4203" x="872.5" y="395.5629">&#1074; &#1083;&#1102;&#1073;&#1086;&#1084; &#1076;&#1086;&#1084;&#1077; &#1076;&#1083;&#1103; &#1089;&#1086;&#1090;&#1088;&#1091;&#1076;&#1085;&#1080;&#1082;&#1086;&#1074; &#1090;&#1077;&#1093;&#1087;&#1086;&#1076;&#1076;&#1077;&#1088;&#1078;&#1082;&#1080;);</text><text fill="#000000" font-family="sans-serif" font-size="13" lengthAdjust="spacing" textLength="3.38" x="872.5" y="413.2689">&#160;</text><text fill="#000000" font-family="sans-serif" font-size="13" lengthAdjust="spacing" textLength="279.9032" x="872.5" y="430.975">- &#1084;&#1086;&#1075;&#1091;&#1090; &#1074;&#1099;&#1089;&#1090;&#1072;&#1074;&#1083;&#1103;&#1090;&#1100;&#1089;&#1103; &#1076;&#1083;&#1103; &#1082;&#1086;&#1085;&#1082;&#1088;&#1077;&#1090;&#1085;&#1086;&#1075;&#1086; &#1076;&#1086;&#1084;&#1072;</text><text fill="#000000" font-family="sans-serif" font-size="13" lengthAdjust="spacing" textLength="256.2822" x="872.5" y="448.681">(&#1085;&#1072;&#1087;&#1088;&#1080;&#1084;&#1077;&#1088;, &#1074;&#1083;&#1072;&#1076;&#1077;&#1083;&#1077;&#1094; &#1076;&#1086;&#1084;&#1072; &#1080;&#1084;&#1077;&#1077;&#1090; &#1087;&#1088;&#1072;&#1074;&#1086;</text><text fill="#000000" font-family="sans-serif" font-size="13" lengthAdjust="spacing" textLength="259.2592" x="872.5" y="466.387">&#1091;&#1087;&#1088;&#1072;&#1074;&#1083;&#1103;&#1090;&#1100; &#1091;&#1089;&#1090;&#1088;&#1086;&#1081;&#1089;&#1090;&#1074;&#1072;&#1084;&#1080; &#1074; &#1089;&#1074;&#1086;&#1080;&#1093; &#1076;&#1086;&#1084;&#1072;&#1093;);</text><text fill="#000000" font-family="sans-serif" font-size="13" lengthAdjust="spacing" textLength="3.38" x="872.5" y="484.093">&#160;</text><text fill="#000000" font-family="sans-serif" font-size="13" lengthAdjust="spacing" textLength="306.3192" x="872.5" y="501.799">- &#1084;&#1086;&#1075;&#1091;&#1090; &#1074;&#1099;&#1089;&#1090;&#1072;&#1074;&#1083;&#1103;&#1090;&#1100;&#1089;&#1103; &#1076;&#1083;&#1103; &#1082;&#1086;&#1085;&#1082;&#1088;&#1077;&#1090;&#1085;&#1099;&#1093; &#1091;&#1089;&#1090;&#1088;&#1086;&#1081;&#1089;&#1090;&#1074;</text><text fill="#000000" font-family="sans-serif" font-size="13" lengthAdjust="spacing" textLength="392.8733" x="872.5" y="519.505">(&#1085;&#1072;&#1087;&#1088;&#1080;&#1084;&#1077;&#1088;, &#1078;&#1080;&#1083;&#1100;&#1094;&#1099; &#1080;&#1084;&#1077;&#1102;&#1090; &#1087;&#1088;&#1072;&#1074;&#1086; &#1091;&#1087;&#1088;&#1072;&#1074;&#1083;&#1103;&#1090;&#1100; &#1101;&#1083;&#1077;&#1082;&#1090;&#1088;&#1086;&#1097;&#1080;&#1090;&#1082;&#1086;&#1084;,</text><text fill="#000000" font-family="sans-serif" font-size="13" lengthAdjust="spacing" textLength="362.7133" x="872.5" y="537.2111">&#1085;&#1086; &#1085;&#1077; &#1080;&#1084;&#1077;&#1102;&#1090; &#1087;&#1088;&#1072;&#1074;&#1086; &#1085;&#1072;&#1089;&#1090;&#1088;&#1072;&#1080;&#1074;&#1072;&#1090;&#1100; &#1085;&#1072;&#1089;&#1090;&#1088;&#1086;&#1081;&#1082;&#1080; &#1086;&#1087;&#1086;&#1074;&#1077;&#1097;&#1077;&#1085;&#1080;&#1103;</text><text fill="#000000" font-family="sans-serif" font-size="13" lengthAdjust="spacing" textLength="160.4592" x="872.5" y="554.9171">&#1087;&#1086; &#1087;&#1086;&#1078;&#1072;&#1088;&#1085;&#1099;&#1084; &#1076;&#1072;&#1090;&#1095;&#1080;&#1082;&#1072;&#1084;).</text></g><!--class role_permission_grant--><g class="entity" data-entity="role_permission_grant" data-source-line="118" data-uid="ent0021" id="entity_role_permission_grant"><rect fill="#F1F1F1" height="143.3396" rx="2.5" ry="2.5" style="stroke:#181818;stroke-width:0.5;" width="290.9489" x="694" y="846.1358"/><ellipse cx="765.6167" cy="862.1358" fill="#ADD1B2" rx="11" ry="11" style="stroke:#181818;stroke-width:1;"/><path d="M761.9761,868.6358 L761.9761,856.4952 L769.6324,856.4952 L769.6324,858.6202 L764.3511,858.6202 L764.3511,861.2765 L769.3667,861.2765 L769.3667,863.4015 L764.3511,863.4015 L764.3511,866.5108 L769.6324,866.5108 L769.6324,868.6358 L761.9761,868.6358 Z " fill="#000000"/><text fill="#000000" font-family="sans-serif" font-size="14" lengthAdjust="spacing" textLength="139.2155" x="786.1167" y="867.5678">RolePermissionGrant</text><line style="stroke:#181818;stroke-width:0.5;" x1="695" x2="983.9489" y1="878.1358" y2="878.1358"/><ellipse cx="705" cy="893.1698" fill="#000000" rx="3" ry="3" style="stroke:#000000;stroke-width:1;"/><text fill="#000000" font-family="sans-serif" font-size="14" lengthAdjust="spacing" textLength="36.9319" x="714" y="897.1018">id: int</text><text fill="#000000" font-family="sans-serif" font-size="14" lengthAdjust="spacing" textLength="264.9489" x="714" y="916.1697">&#171;unique&#187; role_id, permission_id: (int, int)</text><line style="stroke:#181818;stroke-width:1;" x1="695" x2="983.9489" y1="924.2717" y2="924.2717"/><text fill="#000000" font-family="sans-serif" font-size="14" lengthAdjust="spacing" textLength="205.7152" x="700" y="943.2376">&#171;optional&#187; expires_at: datetime</text><text fill="#000000" font-family="sans-serif" font-size="14" lengthAdjust="spacing" textLength="244.3691" x="700" y="962.3055">&#171;optional&#187; created_by_by_user_id: int</text><text fill="#000000" font-family="sans-serif" font-size="14" lengthAdjust="spacing" textLength="207.6192" x="700" y="981.3734">&#171;optional&#187; created_at: datetime</text></g><g class="entity" data-entity="role_permission_grant_note" data-source-line="128" data-uid="ent0022" id="entity_role_permission_grant_note"><path d="M1020.5,895.1358 L1020.5,913.6358 L985.13,917.6358 L1020.5,921.6358 L1020.5,940.5479 A0,0 0 0 0 1020.5,940.5479 L1350.5883,940.5479 A0,0 0 0 0 1350.5883,940.5479 L1350.5883,905.1358 L1340.5883,895.1358 L1020.5,895.1358 A0,0 0 0 0 1020.5,895.1358" fill="#FEFFDD" style="stroke:#181818;stroke-width:0.5;"/><path d="M1340.5883,895.1358 L1340.5883,905.1358 L1350.5883,905.1358 L1340.5883,895.1358" fill="#FEFFDD" style="stroke:#181818;stroke-width:0.5;"/><text fill="#000000" font-family="sans-serif" font-size="13" lengthAdjust="spacing" textLength="309.0883" x="1026.5" y="914.0328">&#1056;&#1072;&#1079;&#1088;&#1077;&#1096;&#1077;&#1085;&#1080;&#1103; &#1076;&#1083;&#1103; &#1082;&#1072;&#1078;&#1076;&#1086;&#1081; &#1088;&#1086;&#1083;&#1080; &#1084;&#1086;&#1075;&#1091;&#1090; &#1074;&#1099;&#1076;&#1072;&#1074;&#1072;&#1090;&#1100;&#1089;&#1103;</text><text fill="#000000" font-family="sans-serif" font-size="13" lengthAdjust="spacing" textLength="202.4882" x="1026.5" y="931.7389">&#1082;&#1072;&#1082; &#1087;&#1086;&#1089;&#1090;&#1086;&#1103;&#1085;&#1085;&#1086;, &#1090;&#1072;&#1082; &#1080; &#1074;&#1088;&#1077;&#1084;&#1077;&#1085;&#1085;&#1086;.</text></g><!--link user to user_role_grant--><g class="link" data-entity-1="user" data-entity-2="user_role_grant" data-source-line="34" data-uid="lnk6" id="link_user_user_role_grant"><path codeLine="34" d="M394.3426,188.0065 C350.4126,211.0065 307.84,241.5958 280.5,288.1358 C186.52,448.1158 245.5,518.5958 245.5,704.1358 C245.5,704.1358 245.5,704.1358 245.5,918.6358 C245.5,1068.5558 195.07,1130.9358 280.5,1254.1358 C282.83,1257.4958 341.9047,1286.9686 407.1947,1318.9286" fill="none" id="user-user_role_grant" style="stroke:#181818;stroke-width:1;"/><line style="stroke:#181818;stroke-width:1;" x1="396.031" x2="399.7416" y1="182.6075" y2="189.6949"/><line style="stroke:#181818;stroke-width:1;" x1="393.3732" x2="397.0839" y1="183.999" y2="191.0864"/><line style="stroke:#181818;stroke-width:1;" x1="394.3426" x2="401.43" y1="188.0065" y2="184.2958"/><line style="stroke:#181818;stroke-width:1;" x1="412.546" x2="409.0287" y1="1317.0945" y2="1324.2799"/><line style="stroke:#181818;stroke-width:1;" x1="409.8515" x2="406.3342" y1="1315.7756" y2="1322.9609"/><line style="stroke:#181818;stroke-width:1;" x1="407.1947" x2="414.38" y1="1318.9286" y2="1322.4458"/><text fill="#000000" font-family="sans-serif" font-size="13" lengthAdjust="spacing" textLength="7.436" x="386.121" y="183.8487">1</text><text fill="#000000" font-family="sans-serif" font-size="13" lengthAdjust="spacing" textLength="7.436" x="398.9502" y="1314.7619">1</text></g><!--link user to house--><g class="link" data-entity-1="user" data-entity-2="house" data-source-line="57" data-uid="lnk12" id="link_user_house"><path codeLine="57" d="M565.7951,234.216 C583.2151,253.746 596.42,268.6558 613.5,288.1358 C635.13,312.7958 653.5461,334.0883 673.9461,357.8283" fill="none" id="user-house" style="stroke:#181818;stroke-width:1;"/><line style="stroke:#181818;stroke-width:1;" x1="565.7951" x2="555.9924" y1="234.216" y2="232.2397"/><line style="stroke:#181818;stroke-width:1;" x1="565.7951" x2="564.9476" y1="234.216" y2="224.252"/><line style="stroke:#181818;stroke-width:1;" x1="565.7951" x2="560.47" y1="234.216" y2="228.2458"/><line style="stroke:#181818;stroke-width:1;" x1="564.1414" x2="570.1115" y1="238.3711" y2="233.046"/><line style="stroke:#181818;stroke-width:1;" x1="673.9461" x2="683.7107" y1="357.8283" y2="359.9854"/><line style="stroke:#181818;stroke-width:1;" x1="673.9461" x2="674.6093" y1="357.8283" y2="367.8063"/><line style="stroke:#181818;stroke-width:1;" x1="673.9461" x2="679.16" y1="357.8283" y2="363.8958"/><line style="stroke:#181818;stroke-width:1;" x1="675.6764" x2="669.6088" y1="353.7044" y2="358.9183"/><text fill="#000000" font-family="sans-serif" font-size="13" lengthAdjust="spacing" textLength="21.502" x="545.1802" y="250.4175">1-N</text><text fill="#000000" font-family="sans-serif" font-size="13" lengthAdjust="spacing" textLength="21.502" x="650.5313" y="352.1979">1-N</text></g><!--link role to user_role_grant--><g class="link" data-entity-1="role" data-entity-2="user_role_grant" data-source-line="82" data-uid="lnk16" id="link_role_user_role_grant"><path codeLine="82" d="M757.2172,1218.7861 C740.4772,1232.1461 729.05,1241.1658 712.5,1254.1358 C687.6,1273.6358 666.8465,1289.7054 641.7365,1308.9754" fill="none" id="role-user_role_grant" style="stroke:#181818;stroke-width:1;"/><line style="stroke:#181818;stroke-width:1;" x1="757.8485" x2="762.8387" y1="1213.1646" y2="1219.4174"/><line style="stroke:#181818;stroke-width:1;" x1="755.5037" x2="760.494" y1="1215.0359" y2="1221.2887"/><line style="stroke:#181818;stroke-width:1;" x1="757.2172" x2="763.47" y1="1218.7861" y2="1213.7958"/><line style="stroke:#181818;stroke-width:1;" x1="640.9985" x2="636.128" y1="1314.5839" y2="1308.2373"/><line style="stroke:#181818;stroke-width:1;" x1="643.3785" x2="638.508" y1="1312.7574" y2="1306.4109"/><line style="stroke:#181818;stroke-width:1;" x1="641.7365" x2="635.39" y1="1308.9754" y2="1313.8458"/><text fill="#000000" font-family="sans-serif" font-size="13" lengthAdjust="spacing" textLength="7.436" x="747.316" y="1235.888">1</text><text fill="#000000" font-family="sans-serif" font-size="13" lengthAdjust="spacing" textLength="7.436" x="637.6118" y="1302.4818">1</text></g><!--link house to permission--><g class="link" data-entity-1="house" data-entity-2="permission" data-source-line="96" data-uid="lnk18" id="link_house_permission"><path codeLine="96" d="M760.7817,502.24 C776.3517,542.15 784.8423,563.9351 801.7023,607.1851" fill="none" id="house-permission" style="stroke:#181818;stroke-width:1;"/><line style="stroke:#181818;stroke-width:1;" x1="759.3279" x2="755.33" y1="498.5136" y2="488.2658"/><ellipse cx="759.3279" cy="498.5136" fill="none" rx="4" ry="4" style="stroke:#181818;stroke-width:1;"/><line style="stroke:#181818;stroke-width:1;" x1="753.0573" x2="760.5103" y1="493.4461" y2="490.5385"/><line style="stroke:#181818;stroke-width:1;" x1="805.3344" x2="813.8303" y1="616.5022" y2="621.7766"/><line style="stroke:#181818;stroke-width:1;" x1="805.3344" x2="802.6497" y1="616.5022" y2="626.1351"/><line style="stroke:#181818;stroke-width:1;" x1="805.3344" x2="808.24" y1="616.5022" y2="623.9558"/><ellipse cx="803.1551" cy="610.9119" fill="none" rx="4" ry="4" style="stroke:#181818;stroke-width:1;"/><text fill="#000000" font-family="sans-serif" font-size="13" lengthAdjust="spacing" textLength="19.058" x="737.9896" y="510.3546">0-1</text><text fill="#000000" font-family="sans-serif" font-size="13" lengthAdjust="spacing" textLength="21.502" x="783.2775" y="612.3194">0-N</text></g><!--link role_permission_grant to role--><g class="link" data-entity-1="role_permission_grant" data-entity-2="role" data-source-line="133" data-uid="lnk24" id="link_role_permission_grant_role"><path codeLine="133" d="M839.5,997.1858 C839.5,1029.1858 839.5,1050.6558 839.5,1081.4458" fill="none" id="role_permission_grant-role" style="stroke:#181818;stroke-width:1;"/><line style="stroke:#181818;stroke-width:1;" x1="835.5" x2="843.5" y1="993.1858" y2="993.1858"/><line style="stroke:#181818;stroke-width:1;" x1="835.5" x2="843.5" y1="996.1858" y2="996.1858"/><line style="stroke:#181818;stroke-width:1;" x1="839.5" x2="839.5" y1="997.1858" y2="989.1858"/><line style="stroke:#181818;stroke-width:1;" x1="843.5" x2="835.5" y1="1085.4458" y2="1085.4458"/><line style="stroke:#181818;stroke-width:1;" x1="843.5" x2="835.5" y1="1082.4458" y2="1082.4458"/><line style="stroke:#181818;stroke-width:1;" x1="839.5" x2="839.5" y1="1081.4458" y2="1089.4458"/><text fill="#000000" font-family="sans-serif" font-size="13" lengthAdjust="spacing" textLength="7.436" x="832.1642" y="1011.3569">1</text><text fill="#000000" font-family="sans-serif" font-size="13" lengthAdjust="spacing" textLength="7.436" x="832.1174" y="1077.754">1</text></g><!--link permission to role_permission_grant--><g class="link" data-entity-1="permission" data-entity-2="role_permission_grant" data-source-line="134" data-uid="lnk25" id="link_permission_role_permission_grant"><path codeLine="134" d="M839.5,794.3158 C839.5,813.9558 839.5,818.8258 839.5,837.9758" fill="none" id="permission-role_permission_grant" style="stroke:#181818;stroke-width:1;"/><line style="stroke:#181818;stroke-width:1;" x1="835.5" x2="843.5" y1="790.3158" y2="790.3158"/><line style="stroke:#181818;stroke-width:1;" x1="835.5" x2="843.5" y1="793.3158" y2="793.3158"/><line style="stroke:#181818;stroke-width:1;" x1="839.5" x2="839.5" y1="794.3158" y2="786.3158"/><line style="stroke:#181818;stroke-width:1;" x1="843.5" x2="835.5" y1="841.9758" y2="841.9758"/><line style="stroke:#181818;stroke-width:1;" x1="843.5" x2="835.5" y1="838.9758" y2="838.9758"/><line style="stroke:#181818;stroke-width:1;" x1="839.5" x2="839.5" y1="837.9758" y2="845.9758"/><text fill="#000000" font-family="sans-serif" font-size="13" lengthAdjust="spacing" textLength="7.436" x="832.1915" y="808.494">1</text><text fill="#000000" font-family="sans-serif" font-size="13" lengthAdjust="spacing" textLength="7.436" x="832.1438" y="834.1254">1</text></g></g></svg>