<svg xmlns="http://www.w3.org/2000/svg" xmlns:xlink="http://www.w3.org/1999/xlink" contentStyleType="text/css" data-diagram-type="CLASS" height="1032px" preserveAspectRatio="none" style="width:2399px;height:1032px;background:#FFFFFF;" version="1.1" viewBox="0 0 2399 1032" width="2399px" zoomAndPan="magnify"><defs/><g><!--cluster pydantic--><g class="cluster" data-entity="pydantic" data-source-line="24" data-uid="ent0006" id="cluster_pydantic"><path d="M896,923 L957.8858,923 A3.75,3.75 0 0 1 960.3858,925.5 L967.3858,948.0679 L1023,948.0679 A2.5,2.5 0 0 1 1025.5,950.5679 L1025.5,1022.5 A2.5,2.5 0 0 1 1023,1025 L896,1025 A2.5,2.5 0 0 1 893.5,1022.5 L893.5,925.5 A2.5,2.5 0 0 1 896,923" fill="none" style="stroke:#000000;stroke-width:1.5;"/><line style="stroke:#000000;stroke-width:1.5;" x1="893.5" x2="967.3858" y1="948.0679" y2="948.0679"/><text fill="#000000" font-family="sans-serif" font-size="14" font-weight="bold" lengthAdjust="spacing" textLength="60.8858" x="897.5" y="939.9659">pydantic</text></g><!--cluster telemetry_dto--><g class="cluster" data-entity="telemetry_dto" data-source-line="27" data-uid="ent0008" id="cluster_telemetry_dto"><path d="M309,486 L408.6716,486 A3.75,3.75 0 0 1 411.1716,488.5 L418.1716,511.0679 L1406,511.0679 A2.5,2.5 0 0 1 1408.5,513.5679 L1408.5,861.5 A2.5,2.5 0 0 1 1406,864 L309,864 A2.5,2.5 0 0 1 306.5,861.5 L306.5,488.5 A2.5,2.5 0 0 1 309,486" fill="none" style="stroke:#000000;stroke-width:1.5;"/><line style="stroke:#000000;stroke-width:1.5;" x1="306.5" x2="418.1716" y1="511.0679" y2="511.0679"/><text fill="#000000" font-family="sans-serif" font-size="14" font-weight="bold" lengthAdjust="spacing" textLength="98.6716" x="310.5" y="502.9659">telemetry_dto</text><text fill="#000000" font-family="sans-serif" font-size="14" font-style="italic" lengthAdjust="spacing" textLength="56.1258" x="833.4371" y="528.0339">&#171;shared&#187;</text></g><!--class BaseModel--><g class="entity" data-entity="BaseModel" data-source-line="24" data-uid="ent0005" id="entity_BaseModel"><rect fill="#F1F1F1" height="48" rx="2.5" ry="2.5" style="stroke:#181818;stroke-width:0.5;" width="99.7457" x="909.5" y="961"/><ellipse cx="924.5" cy="977" fill="#A9DCDF" rx="11" ry="11" style="stroke:#181818;stroke-width:1;"/><path d="M919.6719,982.75 L923.0156,970.5625 L926.1563,970.5625 L929.5313,982.75 L927.0625,982.75 L926.3281,979.7344 L922.8125,979.7344 L922.0625,982.75 L919.6719,982.75 Z M924.0781,974.7031 L923.3281,977.7031 L925.8438,977.7031 L925.125,974.7031 Q924.9844,974.125 924.8594,973.5781 Q924.7344,973.0156 924.5938,972.4375 Q924.4844,973.0156 924.3438,973.5781 Q924.2031,974.125 924.0781,974.7031 Z " fill="#000000"/><text fill="#000000" font-family="sans-serif" font-size="14" font-style="italic" lengthAdjust="spacing" textLength="67.7457" x="938.5" y="982.432">BaseModel</text><line style="stroke:#181818;stroke-width:0.5;" x1="910.5" x2="1008.2457" y1="993" y2="993"/><line style="stroke:#181818;stroke-width:0.5;" x1="910.5" x2="1008.2457" y1="1001" y2="1001"/></g><!--class MeasurementProcessInfo--><g class="entity" data-entity="MeasurementProcessInfo" data-source-line="27" data-uid="ent0007" id="entity_MeasurementProcessInfo"><rect fill="#F1F1F1" height="143.3396" rx="2.5" ry="2.5" style="stroke:#181818;stroke-width:0.5;" width="294.855" x="1070" y="551"/><ellipse cx="1128.3728" cy="567" fill="#ADD1B2" rx="11" ry="11" style="stroke:#181818;stroke-width:1;"/><path d="M1127.8416,573.9219 Q1126.0916,573.9219 1124.951,573.1875 Q1123.826,572.4375 1123.2635,571.0938 Q1122.7166,569.7344 1122.7166,567.9375 Q1122.7166,565.9063 1123.3728,564.4531 Q1124.0291,563 1125.3103,562.2188 Q1126.5916,561.4375 1128.4666,561.4375 Q1129.3572,561.4375 1130.0291,561.625 Q1130.701,561.7969 1131.3885,562.1406 L1130.576,564.1563 Q1129.951,563.8438 1129.4041,563.7188 Q1128.8728,563.5938 1128.3885,563.5938 Q1127.2166,563.5938 1126.5135,564.125 Q1125.8103,564.6563 1125.5135,565.6094 Q1125.2166,566.5625 1125.2166,567.8281 Q1125.2166,569.8438 1125.9353,570.8125 Q1126.6541,571.7656 1128.2478,571.7656 Q1128.8416,571.7656 1129.4666,571.6094 Q1130.0916,571.4531 1130.9197,571.0781 L1130.9197,573.2969 Q1130.1853,573.6094 1129.3885,573.7656 Q1128.6072,573.9219 1127.8416,573.9219 Z " fill="#000000"/><text fill="#000000" font-family="sans-serif" font-size="14" lengthAdjust="spacing" textLength="169.6094" x="1148.8728" y="572.432">MeasurementProcessInfo</text><line style="stroke:#181818;stroke-width:0.5;" x1="1071" x2="1363.855" y1="583" y2="583"/><ellipse cx="1081" cy="598.034" fill="none" rx="3" ry="3" style="stroke:#038048;stroke-width:1;"/><text fill="#000000" font-family="sans-serif" font-size="14" lengthAdjust="spacing" textLength="87.3597" x="1090" y="601.9659">sensor_id: int</text><ellipse cx="1081" cy="617.1019" fill="none" rx="3" ry="3" style="stroke:#038048;stroke-width:1;"/><text fill="#000000" font-family="sans-serif" font-size="14" lengthAdjust="spacing" textLength="268.855" x="1090" y="621.0339">sample_format: TelemetrySampleFormat</text><ellipse cx="1081" cy="636.1698" fill="none" rx="3" ry="3" style="stroke:#038048;stroke-width:1;"/><text fill="#000000" font-family="sans-serif" font-size="14" lengthAdjust="spacing" textLength="132.5375" x="1090" y="640.1018">started_at: datetime</text><ellipse cx="1081" cy="655.2377" fill="none" rx="3" ry="3" style="stroke:#038048;stroke-width:1;"/><text fill="#000000" font-family="sans-serif" font-size="14" lengthAdjust="spacing" textLength="211.7632" x="1090" y="659.1697">&#171;optional&#187; stopped_at: datetime</text><ellipse cx="1081" cy="674.3056" fill="none" rx="3" ry="3" style="stroke:#038048;stroke-width:1;"/><text fill="#000000" font-family="sans-serif" font-size="14" lengthAdjust="spacing" textLength="225.9592" x="1090" y="678.2376">&#171;optional&#187; sampling_interval: float</text><line style="stroke:#181818;stroke-width:0.5;" x1="1071" x2="1363.855" y1="686.3396" y2="686.3396"/></g><!--class TelemetrySampleInfo--><g class="entity" data-entity="TelemetrySampleInfo" data-source-line="31" data-uid="ent0010" id="entity_TelemetrySampleInfo"><rect fill="#F1F1F1" height="67.0679" rx="2.5" ry="2.5" style="stroke:#181818;stroke-width:0.5;" width="163.5435" x="609.5" y="773"/><ellipse cx="624.5" cy="789" fill="#A9DCDF" rx="11" ry="11" style="stroke:#181818;stroke-width:1;"/><path d="M619.6719,794.75 L623.0156,782.5625 L626.1563,782.5625 L629.5313,794.75 L627.0625,794.75 L626.3281,791.7344 L622.8125,791.7344 L622.0625,794.75 L619.6719,794.75 Z M624.0781,786.7031 L623.3281,789.7031 L625.8438,789.7031 L625.125,786.7031 Q624.9844,786.125 624.8594,785.5781 Q624.7344,785.0156 624.5938,784.4375 Q624.4844,785.0156 624.3438,785.5781 Q624.2031,786.125 624.0781,786.7031 Z " fill="#000000"/><text fill="#000000" font-family="sans-serif" font-size="14" font-style="italic" lengthAdjust="spacing" textLength="131.5435" x="638.5" y="794.432">TelemetrySampleInfo</text><line style="stroke:#181818;stroke-width:0.5;" x1="610.5" x2="772.0435" y1="805" y2="805"/><ellipse cx="620.5" cy="820.034" fill="none" rx="3" ry="3" style="stroke:#038048;stroke-width:1;"/><text fill="#000000" font-family="sans-serif" font-size="14" lengthAdjust="spacing" textLength="137.4235" x="629.5" y="823.9659">timestamp: datetime</text><line style="stroke:#181818;stroke-width:0.5;" x1="610.5" x2="772.0435" y1="832.0679" y2="832.0679"/></g><!--class FloatTelemetrySampleInfo--><g class="entity" data-entity="FloatTelemetrySampleInfo" data-source-line="38" data-uid="ent0012" id="entity_FloatTelemetrySampleInfo"><rect fill="#F1F1F1" height="67.0679" rx="2.5" ry="2.5" style="stroke:#181818;stroke-width:0.5;" width="205.8373" x="828.5" y="589"/><ellipse cx="843.5" cy="605" fill="#ADD1B2" rx="11" ry="11" style="stroke:#181818;stroke-width:1;"/><path d="M842.9688,611.9219 Q841.2188,611.9219 840.0781,611.1875 Q838.9531,610.4375 838.3906,609.0938 Q837.8438,607.7344 837.8438,605.9375 Q837.8438,603.9063 838.5,602.4531 Q839.1563,601 840.4375,600.2188 Q841.7188,599.4375 843.5938,599.4375 Q844.4844,599.4375 845.1563,599.625 Q845.8281,599.7969 846.5156,600.1406 L845.7031,602.1563 Q845.0781,601.8438 844.5313,601.7188 Q844,601.5938 843.5156,601.5938 Q842.3438,601.5938 841.6406,602.125 Q840.9375,602.6563 840.6406,603.6094 Q840.3438,604.5625 840.3438,605.8281 Q840.3438,607.8438 841.0625,608.8125 Q841.7813,609.7656 843.375,609.7656 Q843.9688,609.7656 844.5938,609.6094 Q845.2188,609.4531 846.0469,609.0781 L846.0469,611.2969 Q845.3125,611.6094 844.5156,611.7656 Q843.7344,611.9219 842.9688,611.9219 Z " fill="#000000"/><text fill="#000000" font-family="sans-serif" font-size="14" lengthAdjust="spacing" textLength="173.8373" x="857.5" y="610.432">FloatTelemetrySampleInfo</text><line style="stroke:#181818;stroke-width:0.5;" x1="829.5" x2="1033.3373" y1="621" y2="621"/><ellipse cx="839.5" cy="636.034" fill="none" rx="3" ry="3" style="stroke:#038048;stroke-width:1;"/><text fill="#000000" font-family="sans-serif" font-size="14" lengthAdjust="spacing" textLength="144.5495" x="848.5" y="639.9659">&#171;optional&#187; value: float</text><line style="stroke:#181818;stroke-width:0.5;" x1="829.5" x2="1033.3373" y1="648.0679" y2="648.0679"/></g><!--class BoolTelemetrySampleInfo--><g class="entity" data-entity="BoolTelemetrySampleInfo" data-source-line="43" data-uid="ent0014" id="entity_BoolTelemetrySampleInfo"><rect fill="#F1F1F1" height="67.0679" rx="2.5" ry="2.5" style="stroke:#181818;stroke-width:0.5;" width="203.2333" x="590" y="589"/><ellipse cx="605" cy="605" fill="#ADD1B2" rx="11" ry="11" style="stroke:#181818;stroke-width:1;"/><path d="M604.4688,611.9219 Q602.7188,611.9219 601.5781,611.1875 Q600.4531,610.4375 599.8906,609.0938 Q599.3438,607.7344 599.3438,605.9375 Q599.3438,603.9063 600,602.4531 Q600.6563,601 601.9375,600.2188 Q603.2188,599.4375 605.0938,599.4375 Q605.9844,599.4375 606.6563,599.625 Q607.3281,599.7969 608.0156,600.1406 L607.2031,602.1563 Q606.5781,601.8438 606.0313,601.7188 Q605.5,601.5938 605.0156,601.5938 Q603.8438,601.5938 603.1406,602.125 Q602.4375,602.6563 602.1406,603.6094 Q601.8438,604.5625 601.8438,605.8281 Q601.8438,607.8438 602.5625,608.8125 Q603.2813,609.7656 604.875,609.7656 Q605.4688,609.7656 606.0938,609.6094 Q606.7188,609.4531 607.5469,609.0781 L607.5469,611.2969 Q606.8125,611.6094 606.0156,611.7656 Q605.2344,611.9219 604.4688,611.9219 Z " fill="#000000"/><text fill="#000000" font-family="sans-serif" font-size="14" lengthAdjust="spacing" textLength="171.2333" x="619" y="610.432">BoolTelemetrySampleInfo</text><line style="stroke:#181818;stroke-width:0.5;" x1="591" x2="792.2333" y1="621" y2="621"/><ellipse cx="601" cy="636.034" fill="none" rx="3" ry="3" style="stroke:#038048;stroke-width:1;"/><text fill="#000000" font-family="sans-serif" font-size="14" lengthAdjust="spacing" textLength="143.9055" x="610" y="639.9659">&#171;optional&#187; value: bool</text><line style="stroke:#181818;stroke-width:0.5;" x1="591" x2="792.2333" y1="648.0679" y2="648.0679"/></g><!--class CustomTelemetrySampleInfo--><g class="entity" data-entity="CustomTelemetrySampleInfo" data-source-line="50" data-uid="ent0016" id="entity_CustomTelemetrySampleInfo"><rect fill="#F1F1F1" height="61.412" rx="2.5" ry="2.5" style="stroke:#181818;stroke-width:0.5;" width="224.4013" x="330.5" y="592"/><ellipse cx="345.5" cy="614.706" fill="#ADD1B2" rx="11" ry="11" style="stroke:#181818;stroke-width:1;"/><path d="M344.9688,621.6279 Q343.2188,621.6279 342.0781,620.8935 Q340.9531,620.1435 340.3906,618.7998 Q339.8438,617.4404 339.8438,615.6435 Q339.8438,613.6123 340.5,612.1591 Q341.1563,610.706 342.4375,609.9248 Q343.7188,609.1435 345.5938,609.1435 Q346.4844,609.1435 347.1563,609.331 Q347.8281,609.5029 348.5156,609.8466 L347.7031,611.8623 Q347.0781,611.5498 346.5313,611.4248 Q346,611.2998 345.5156,611.2998 Q344.3438,611.2998 343.6406,611.831 Q342.9375,612.3623 342.6406,613.3154 Q342.3438,614.2685 342.3438,615.5341 Q342.3438,617.5498 343.0625,618.5185 Q343.7813,619.4716 345.375,619.4716 Q345.9688,619.4716 346.5938,619.3154 Q347.2188,619.1591 348.0469,618.7841 L348.0469,621.0029 Q347.3125,621.3154 346.5156,621.4716 Q345.7344,621.6279 344.9688,621.6279 Z " fill="#000000"/><text fill="#000000" font-family="sans-serif" font-size="12" font-style="italic" lengthAdjust="spacing" textLength="70.5005" x="420.4504" y="609.8281">&#171;Extra.allow&#187;</text><text fill="#000000" font-family="sans-serif" font-size="14" lengthAdjust="spacing" textLength="192.4013" x="359.5" y="628.31">CustomTelemetrySampleInfo</text><line style="stroke:#181818;stroke-width:0.5;" x1="331.5" x2="553.9013" y1="637.412" y2="637.412"/><line style="stroke:#181818;stroke-width:0.5;" x1="331.5" x2="553.9013" y1="645.412" y2="645.412"/></g><path d="M1438,593.5 L1580.5255,593.5 A3.75,3.75 0 0 1 1583.0255,596 L1590.0255,618.5679 L1594.5255,618.5679 A2.5,2.5 0 0 1 1597.0255,621.0679 L1597.0255,649.1358 A2.5,2.5 0 0 1 1594.5255,651.6358 L1438,651.6358 A2.5,2.5 0 0 1 1435.5,649.1358 L1435.5,596 A2.5,2.5 0 0 1 1438,593.5" fill="#F1F1F1" style="stroke:#181818;stroke-width:0.5;"/><line style="stroke:#181818;stroke-width:0.5;" x1="1435.5" x2="1590.0255" y1="618.5679" y2="618.5679"/><text fill="#000000" font-family="sans-serif" font-size="14" font-weight="bold" lengthAdjust="spacing" textLength="141.5255" x="1439.5" y="610.4659">telemetry_sqla_repo</text><path d="M1934.5,777.5 L2090.8994,777.5 A3.75,3.75 0 0 1 2093.3994,780 L2100.3994,802.5679 L2104.8994,802.5679 A2.5,2.5 0 0 1 2107.3994,805.0679 L2107.3994,833.1358 A2.5,2.5 0 0 1 2104.8994,835.6358 L1934.5,835.6358 A2.5,2.5 0 0 1 1932,833.1358 L1932,780 A2.5,2.5 0 0 1 1934.5,777.5" fill="#F1F1F1" style="stroke:#181818;stroke-width:0.5;"/><line style="stroke:#181818;stroke-width:0.5;" x1="1932" x2="2100.3994" y1="802.5679" y2="802.5679"/><text fill="#000000" font-family="sans-serif" font-size="14" font-weight="bold" lengthAdjust="spacing" textLength="155.3994" x="1936" y="794.4659">telemetry_queue_utils</text><text fill="#000000" font-family="sans-serif" font-size="14" font-style="italic" lengthAdjust="spacing" textLength="56.1258" x="1995.6368" y="819.5339">&#171;shared&#187;</text><!--class BaseTelemetryRouter--><g class="entity" data-entity="BaseTelemetryRouter" data-source-line="7" data-uid="ent0002" id="entity_BaseTelemetryRouter"><rect fill="#F1F1F1" height="241.0233" rx="2.5" ry="2.5" style="stroke:#181818;stroke-width:0.5;" width="716.7294" x="1246" y="7"/><ellipse cx="1534.5179" cy="29.706" fill="#A9DCDF" rx="11" ry="11" style="stroke:#181818;stroke-width:1;"/><path d="M1529.6898,35.456 L1533.0336,23.2685 L1536.1742,23.2685 L1539.5492,35.456 L1537.0804,35.456 L1536.3461,32.4404 L1532.8304,32.4404 L1532.0804,35.456 L1529.6898,35.456 Z M1534.0961,27.4091 L1533.3461,30.4091 L1535.8617,30.4091 L1535.1429,27.4091 Q1535.0023,26.831 1534.8773,26.2841 Q1534.7523,25.7216 1534.6117,25.1435 Q1534.5023,25.7216 1534.3617,26.2841 Q1534.2211,26.831 1534.0961,27.4091 Z " fill="#000000"/><text fill="#000000" font-family="sans-serif" font-size="12" font-style="italic" lengthAdjust="spacing" textLength="55.3924" x="1592.9185" y="24.8281">&#171;abstract&#187;</text><text fill="#000000" font-family="sans-serif" font-size="14" font-style="italic" lengthAdjust="spacing" textLength="131.1935" x="1555.0179" y="43.31">BaseTelemetryRouter</text><line style="stroke:#181818;stroke-width:0.5;" x1="1247" x2="1961.7294" y1="52.412" y2="52.412"/><ellipse cx="1257" cy="67.446" fill="#84BE84" rx="3" ry="3" style="stroke:#038048;stroke-width:1;"/><text fill="#000000" font-family="sans-serif" font-size="14" lengthAdjust="spacing" textLength="307.3828" x="1266" y="71.378">&#171;GET&#187; &#171;async&#187; health_check() -&gt; Optional[bool]</text><line style="stroke:#181818;stroke-width:1;" x1="1247" x2="1961.7294" y1="79.4799" y2="79.4799"/><ellipse cx="1257" cy="94.5139" fill="#84BE84" rx="3" ry="3" style="stroke:#038048;stroke-width:1;"/><text fill="#000000" font-family="sans-serif" font-size="14" lengthAdjust="spacing" textLength="549.3579" x="1266" y="98.4459">&#171;GET&#187; &#171;async&#187; get_measurement_processes(sensor_ids=None, sensor_uuids=None,</text><text fill="#000000" font-family="sans-serif" font-size="14" lengthAdjust="spacing" textLength="604.3077" x="1266" y="117.5138">active_only=False, min_start_ts=None, max_start_ts=None) -&gt; List[MeasurementProcessInfo]</text><line style="stroke:#181818;stroke-width:1;" x1="1247" x2="1961.7294" y1="125.6158" y2="125.6158"/><ellipse cx="1257" cy="140.6497" fill="#84BE84" rx="3" ry="3" style="stroke:#038048;stroke-width:1;"/><text fill="#000000" font-family="sans-serif" font-size="14" lengthAdjust="spacing" textLength="588.3618" x="1266" y="144.5817">&#171;GET&#187; &#171;async&#187; get_measurement_process(meas_proc_id: int) -&gt; MeasurementProcessInfo</text><ellipse cx="1257" cy="159.7177" fill="#84BE84" rx="3" ry="3" style="stroke:#038048;stroke-width:1;"/><text fill="#000000" font-family="sans-serif" font-size="14" lengthAdjust="spacing" textLength="690.7294" x="1266" y="163.6496">&#171;GET&#187; &#171;async&#187; get_samples(meas_proc_id: int, start_ts=None, end_ts=None) -&gt; List[TelemetrySampleInfo]</text><ellipse cx="1257" cy="178.7856" fill="#84BE84" rx="3" ry="3" style="stroke:#038048;stroke-width:1;"/><text fill="#000000" font-family="sans-serif" font-size="14" lengthAdjust="spacing" textLength="566.9419" x="1266" y="182.7176">&#171;WS&#187; &#171;async&#187; stream_samples(meas_proc_id: int) -&gt; WebSocket[TelemetrySampleInfo]</text><rect fill="#F24D5C" height="6" style="stroke:#C82930;stroke-width:1;" width="6" x="1254" y="194.8535"/><text fill="#000000" font-family="sans-serif" font-size="14" lengthAdjust="spacing" textLength="446.8783" x="1266" y="201.7855">&#171;KAFKA&#187; &#171;async&#187; _process_status_event(event: StatusEvent) -&gt; None</text><rect fill="#F24D5C" height="6" style="stroke:#C82930;stroke-width:1;" width="6" x="1254" y="213.9214"/><text fill="#000000" font-family="sans-serif" font-size="14" lengthAdjust="spacing" textLength="584.3718" x="1266" y="220.8534">&#171;KAFKA&#187; &#171;async&#187; _process_sample(topic_name: str, event: TelemetrySampleInfo) -&gt; None</text><polygon fill="#FFFF44" points="1257,230.9893,1261,234.9893,1257,238.9893,1253,234.9893" style="stroke:#B38D22;stroke-width:1;"/><text fill="#000000" font-family="sans-serif" font-size="14" lengthAdjust="spacing" textLength="169.0913" x="1266" y="239.9213">_raise_not_implemented()</text></g><!--class TelemetryRouter--><g class="entity" data-entity="TelemetryRouter" data-source-line="22" data-uid="ent0003" id="entity_TelemetryRouter"><rect fill="#F1F1F1" height="48" rx="2.5" ry="2.5" style="stroke:#181818;stroke-width:0.5;" width="142.7116" x="994" y="103.5"/><ellipse cx="1009" cy="119.5" fill="#ADD1B2" rx="11" ry="11" style="stroke:#181818;stroke-width:1;"/><path d="M1008.4688,126.4219 Q1006.7188,126.4219 1005.5781,125.6875 Q1004.4531,124.9375 1003.8906,123.5938 Q1003.3438,122.2344 1003.3438,120.4375 Q1003.3438,118.4063 1004,116.9531 Q1004.6563,115.5 1005.9375,114.7188 Q1007.2188,113.9375 1009.0938,113.9375 Q1009.9844,113.9375 1010.6563,114.125 Q1011.3281,114.2969 1012.0156,114.6406 L1011.2031,116.6563 Q1010.5781,116.3438 1010.0313,116.2188 Q1009.5,116.0938 1009.0156,116.0938 Q1007.8438,116.0938 1007.1406,116.625 Q1006.4375,117.1563 1006.1406,118.1094 Q1005.8438,119.0625 1005.8438,120.3281 Q1005.8438,122.3438 1006.5625,123.3125 Q1007.2813,124.2656 1008.875,124.2656 Q1009.4688,124.2656 1010.0938,124.1094 Q1010.7188,123.9531 1011.5469,123.5781 L1011.5469,125.7969 Q1010.8125,126.1094 1010.0156,126.2656 Q1009.2344,126.4219 1008.4688,126.4219 Z " fill="#000000"/><text fill="#000000" font-family="sans-serif" font-size="14" lengthAdjust="spacing" textLength="110.7116" x="1023" y="124.932">TelemetryRouter</text><line style="stroke:#181818;stroke-width:0.5;" x1="995" x2="1135.7116" y1="135.5" y2="135.5"/><line style="stroke:#181818;stroke-width:0.5;" x1="995" x2="1135.7116" y1="143.5" y2="143.5"/></g><!--class TelemetryQueueDumper--><g class="entity" data-entity="TelemetryQueueDumper" data-source-line="69" data-uid="ent0020" id="entity_TelemetryQueueDumper"><rect fill="#F1F1F1" height="67.0679" rx="2.5" ry="2.5" style="stroke:#181818;stroke-width:0.5;" width="384.6226" x="1324" y="336.5"/><ellipse cx="1429.8466" cy="352.5" fill="#ADD1B2" rx="11" ry="11" style="stroke:#181818;stroke-width:1;"/><path d="M1429.3154,359.4219 Q1427.5654,359.4219 1426.4248,358.6875 Q1425.2998,357.9375 1424.7373,356.5938 Q1424.1904,355.2344 1424.1904,353.4375 Q1424.1904,351.4063 1424.8466,349.9531 Q1425.5029,348.5 1426.7841,347.7188 Q1428.0654,346.9375 1429.9404,346.9375 Q1430.831,346.9375 1431.5029,347.125 Q1432.1748,347.2969 1432.8623,347.6406 L1432.0498,349.6563 Q1431.4248,349.3438 1430.8779,349.2188 Q1430.3466,349.0938 1429.8623,349.0938 Q1428.6904,349.0938 1427.9873,349.625 Q1427.2841,350.1563 1426.9873,351.1094 Q1426.6904,352.0625 1426.6904,353.3281 Q1426.6904,355.3438 1427.4091,356.3125 Q1428.1279,357.2656 1429.7216,357.2656 Q1430.3154,357.2656 1430.9404,357.1094 Q1431.5654,356.9531 1432.3935,356.5781 L1432.3935,358.7969 Q1431.6591,359.1094 1430.8623,359.2656 Q1430.081,359.4219 1429.3154,359.4219 Z " fill="#000000"/><text fill="#000000" font-family="sans-serif" font-size="14" lengthAdjust="spacing" textLength="164.4293" x="1450.3466" y="357.932">TelemetryQueueDumper</text><line style="stroke:#181818;stroke-width:0.5;" x1="1325" x2="1707.6226" y1="368.5" y2="368.5"/><line style="stroke:#181818;stroke-width:0.5;" x1="1325" x2="1707.6226" y1="376.5" y2="376.5"/><ellipse cx="1335" cy="391.534" fill="#84BE84" rx="3" ry="3" style="stroke:#038048;stroke-width:1;"/><text fill="#000000" font-family="sans-serif" font-size="14" lengthAdjust="spacing" textLength="358.6226" x="1344" y="395.4659">__init__(db_conn_str, db_schema, telemetry_queue_url)</text></g><g class="entity" data-entity="telemetry_queue_dumper_floating_note" data-source-line="78" data-uid="ent0022" id="entity_telemetry_queue_dumper_floating_note"><path d="M1998.5,78 L1998.5,176.5301 L2376.8053,176.5301 L2376.8053,88 L2366.8053,78 L1998.5,78" fill="#FEFFDD" style="stroke:#181818;stroke-width:0.5;"/><path d="M2366.8053,78 L2366.8053,88 L2376.8053,88 L2366.8053,78" fill="#FEFFDD" style="stroke:#181818;stroke-width:1;"/><text fill="#000000" font-family="sans-serif" font-size="13" lengthAdjust="spacing" textLength="191.6721" x="2004.5" y="96.897">&#1057;&#1083;&#1091;&#1096;&#1072;&#1077;&#1090; &#1086;&#1095;&#1077;&#1088;&#1077;&#1076;&#1100; &#1090;&#1077;&#1083;&#1077;&#1084;&#1077;&#1090;&#1088;&#1080;&#1080;</text><text fill="#000000" font-family="sans-serif" font-size="13" lengthAdjust="spacing" textLength="357.3053" x="2004.5" y="114.603">- &#1089;&#1083;&#1091;&#1078;&#1077;&#1073;&#1085;&#1099;&#1081; &#1090;&#1086;&#1087;&#1080;&#1082; &#1086;&#1073; &#1086;&#1073;&#1085;&#1086;&#1074;&#1083;&#1077;&#1085;&#1080;&#1080; &#1089;&#1086;&#1089;&#1090;&#1086;&#1103;&#1085;&#1080;&#1103; &#1076;&#1072;&#1090;&#1095;&#1080;&#1082;&#1086;&#1074;;</text><text fill="#000000" font-family="sans-serif" font-size="13" lengthAdjust="spacing" textLength="119.7821" x="2004.5" y="132.309">- &#1090;&#1086;&#1087;&#1080;&#1082;&#1080; &#1076;&#1072;&#1090;&#1095;&#1080;&#1082;&#1086;&#1074;.</text><text fill="#000000" font-family="sans-serif" font-size="13" lengthAdjust="spacing" textLength="184.2101" x="2004.5" y="150.0151">&#1057;&#1086;&#1093;&#1088;&#1072;&#1085;&#1103;&#1077;&#1090; &#1090;&#1077;&#1083;&#1077;&#1084;&#1077;&#1090;&#1088;&#1080;&#1102; &#1074; &#1041;&#1044;.</text><text fill="#000000" font-family="sans-serif" font-size="13" lengthAdjust="spacing" textLength="300.7423" x="2004.5" y="167.7211">&#1048;&#1089;&#1087;&#1086;&#1083;&#1100;&#1079;&#1091;&#1077;&#1084; Kafka, offset'&#1099; &#1093;&#1088;&#1072;&#1085;&#1080;&#1084; &#1085;&#1072; &#1073;&#1088;&#1086;&#1082;&#1077;&#1088;&#1077;.</text></g><!--class TelemetryQueueReader--><g class="entity" data-entity="TelemetryQueueReader" data-source-line="88" data-uid="ent0024" id="entity_TelemetryQueueReader"><rect fill="#F1F1F1" height="86.1358" rx="2.5" ry="2.5" style="stroke:#181818;stroke-width:0.5;" width="622.2717" x="1750.5" y="327"/><ellipse cx="1978.9232" cy="343" fill="#ADD1B2" rx="11" ry="11" style="stroke:#181818;stroke-width:1;"/><path d="M1978.3919,349.9219 Q1976.6419,349.9219 1975.5013,349.1875 Q1974.3763,348.4375 1973.8138,347.0938 Q1973.2669,345.7344 1973.2669,343.9375 Q1973.2669,341.9063 1973.9232,340.4531 Q1974.5794,339 1975.8607,338.2188 Q1977.1419,337.4375 1979.0169,337.4375 Q1979.9076,337.4375 1980.5794,337.625 Q1981.2513,337.7969 1981.9388,338.1406 L1981.1263,340.1563 Q1980.5013,339.8438 1979.9544,339.7188 Q1979.4232,339.5938 1978.9388,339.5938 Q1977.7669,339.5938 1977.0638,340.125 Q1976.3607,340.6563 1976.0638,341.6094 Q1975.7669,342.5625 1975.7669,343.8281 Q1975.7669,345.8438 1976.4857,346.8125 Q1977.2044,347.7656 1978.7982,347.7656 Q1979.3919,347.7656 1980.0169,347.6094 Q1980.6419,347.4531 1981.4701,347.0781 L1981.4701,349.2969 Q1980.7357,349.6094 1979.9388,349.7656 Q1979.1576,349.9219 1978.3919,349.9219 Z " fill="#000000"/><text fill="#000000" font-family="sans-serif" font-size="14" lengthAdjust="spacing" textLength="156.9254" x="1999.4232" y="348.432">TelemetryQueueReader</text><line style="stroke:#181818;stroke-width:0.5;" x1="1751.5" x2="2371.7717" y1="359" y2="359"/><line style="stroke:#181818;stroke-width:0.5;" x1="1751.5" x2="2371.7717" y1="367" y2="367"/><ellipse cx="1761.5" cy="382.034" fill="#84BE84" rx="3" ry="3" style="stroke:#038048;stroke-width:1;"/><text fill="#000000" font-family="sans-serif" font-size="14" lengthAdjust="spacing" textLength="189.7972" x="1770.5" y="385.9659">__init__(telemetry_queue_url)</text><ellipse cx="1761.5" cy="401.1019" fill="#84BE84" rx="3" ry="3" style="stroke:#038048;stroke-width:1;"/><text fill="#000000" font-family="sans-serif" font-size="14" lengthAdjust="spacing" textLength="596.2717" x="1770.5" y="405.0339">&lt;async&gt; yield_telemetry (source_id, start_time, format) -&gt; Generator[TelemetrySampleInfo]</text></g><g class="entity" data-entity="telemetry_queue_reader_floating_note" data-source-line="94" data-uid="ent0026" id="entity_telemetry_queue_reader_floating_note"><path d="M1830.5,555.5 L1830.5,689.4421 A0,0 0 0 0 1830.5,689.4421 L2302.4053,689.4421 A0,0 0 0 0 2302.4053,689.4421 L2302.4053,565.5 L2292.4053,555.5 L2069.17,555.5 L2062.34,413.21 L2061.17,555.5 L1830.5,555.5 A0,0 0 0 0 1830.5,555.5" fill="#FEFFDD" style="stroke:#181818;stroke-width:0.5;"/><path d="M2292.4053,555.5 L2292.4053,565.5 L2302.4053,565.5 L2292.4053,555.5" fill="#FEFFDD" style="stroke:#181818;stroke-width:0.5;"/><text fill="#000000" font-family="sans-serif" font-size="13" lengthAdjust="spacing" textLength="450.9053" x="1836.5" y="574.397">&#1069;&#1082;&#1079;&#1077;&#1084;&#1087;&#1083;&#1103;&#1088;&#1099; &#1101;&#1090;&#1086;&#1075;&#1086; &#1082;&#1083;&#1072;&#1089;&#1089;&#1072;-&#1089;&#1083;&#1091;&#1096;&#1072;&#1090;&#1077;&#1083;&#1103; &#1089;&#1086;&#1079;&#1076;&#1072;&#1102;&#1090;&#1089;&#1103; &#1088;&#1086;&#1091;&#1090;&#1077;&#1088;&#1086;&#1084; &#1090;&#1077;&#1083;&#1077;&#1084;&#1077;&#1090;&#1088;&#1080;&#1080;,</text><text fill="#000000" font-family="sans-serif" font-size="13" lengthAdjust="spacing" textLength="315.3152" x="1836.5" y="592.103">&#1082;&#1086;&#1075;&#1076;&#1072; &#1086;&#1085; &#1087;&#1086;&#1083;&#1091;&#1095;&#1072;&#1077;&#1090; &#1079;&#1072;&#1087;&#1088;&#1086;&#1089; &#1085;&#1072; &#1086;&#1090;&#1082;&#1088;&#1099;&#1090;&#1080;&#1077; &#1074;&#1077;&#1073;&#1089;&#1086;&#1082;&#1077;&#1090;&#1072;</text><text fill="#000000" font-family="sans-serif" font-size="13" lengthAdjust="spacing" textLength="180.1541" x="1836.5" y="609.809">&#1085;&#1072; &#1086;&#1073;&#1085;&#1086;&#1074;&#1083;&#1077;&#1085;&#1080;&#1103; &#1090;&#1077;&#1083;&#1077;&#1084;&#1077;&#1090;&#1088;&#1080;&#1080;.</text><text fill="#000000" font-family="sans-serif" font-size="13" lengthAdjust="spacing" textLength="3.38" x="1836.5" y="627.5151">&#160;</text><text fill="#000000" font-family="sans-serif" font-size="13" lengthAdjust="spacing" textLength="301.7692" x="1836.5" y="645.2211">&#1057;&#1083;&#1091;&#1096;&#1072;&#1090;&#1077;&#1083;&#1100; &#1087;&#1086;&#1076;&#1087;&#1080;&#1089;&#1099;&#1074;&#1072;&#1077;&#1090;&#1089;&#1103; &#1085;&#1072; &#1079;&#1072;&#1076;&#1072;&#1085;&#1085;&#1099;&#1081; &#1090;&#1086;&#1087;&#1080;&#1082;,</text><text fill="#000000" font-family="sans-serif" font-size="13" lengthAdjust="spacing" textLength="295.8672" x="1836.5" y="662.9271">&#1074;&#1086;&#1079;&#1074;&#1088;&#1072;&#1097;&#1072;&#1077;&#1090; &#1087;&#1086; &#1085;&#1077;&#1084;&#1091; &#1072;&#1089;&#1080;&#1085;&#1093;&#1088;&#1086;&#1085;&#1085;&#1099;&#1081; &#1075;&#1077;&#1085;&#1077;&#1088;&#1072;&#1090;&#1086;&#1088;.</text><text fill="#000000" font-family="sans-serif" font-size="13" lengthAdjust="spacing" textLength="357.0582" x="1836.5" y="680.6331">&#1050;&#1086;&#1075;&#1076;&#1072; &#1074;&#1077;&#1073;&#1089;&#1086;&#1082;&#1077;&#1090; &#1079;&#1072;&#1082;&#1088;&#1099;&#1074;&#1072;&#1077;&#1090;&#1089;&#1103;, &#1088;&#1086;&#1091;&#1090;&#1077;&#1088; &#1091;&#1073;&#1080;&#1074;&#1072;&#1077;&#1090; &#1089;&#1083;&#1091;&#1096;&#1072;&#1090;&#1077;&#1083;&#1103;</text></g><!--class TelemetryDbReader--><g class="entity" data-entity="TelemetryDbReader" data-source-line="108" data-uid="ent0030" id="entity_TelemetryDbReader"><rect fill="#F1F1F1" height="86.1358" rx="2.5" ry="2.5" style="stroke:#181818;stroke-width:0.5;" width="649.3896" x="499" y="327"/><ellipse cx="753.5821" cy="343" fill="#ADD1B2" rx="11" ry="11" style="stroke:#181818;stroke-width:1;"/><path d="M753.0508,349.9219 Q751.3008,349.9219 750.1602,349.1875 Q749.0352,348.4375 748.4727,347.0938 Q747.9258,345.7344 747.9258,343.9375 Q747.9258,341.9063 748.5821,340.4531 Q749.2383,339 750.5196,338.2188 Q751.8008,337.4375 753.6758,337.4375 Q754.5665,337.4375 755.2383,337.625 Q755.9102,337.7969 756.5977,338.1406 L755.7852,340.1563 Q755.1602,339.8438 754.6133,339.7188 Q754.0821,339.5938 753.5977,339.5938 Q752.4258,339.5938 751.7227,340.125 Q751.0196,340.6563 750.7227,341.6094 Q750.4258,342.5625 750.4258,343.8281 Q750.4258,345.8438 751.1446,346.8125 Q751.8633,347.7656 753.4571,347.7656 Q754.0508,347.7656 754.6758,347.6094 Q755.3008,347.4531 756.129,347.0781 L756.129,349.2969 Q755.3946,349.6094 754.5977,349.7656 Q753.8165,349.9219 753.0508,349.9219 Z " fill="#000000"/><text fill="#000000" font-family="sans-serif" font-size="14" lengthAdjust="spacing" textLength="131.7255" x="774.0821" y="348.432">TelemetryDbReader</text><line style="stroke:#181818;stroke-width:0.5;" x1="500" x2="1147.3896" y1="359" y2="359"/><line style="stroke:#181818;stroke-width:0.5;" x1="500" x2="1147.3896" y1="367" y2="367"/><ellipse cx="510" cy="382.034" fill="#84BE84" rx="3" ry="3" style="stroke:#038048;stroke-width:1;"/><text fill="#000000" font-family="sans-serif" font-size="14" lengthAdjust="spacing" textLength="215.6272" x="519" y="385.9659">__init__(db_conn_str, db_schema)</text><ellipse cx="510" cy="401.1019" fill="#84BE84" rx="3" ry="3" style="stroke:#038048;stroke-width:1;"/><text fill="#000000" font-family="sans-serif" font-size="14" lengthAdjust="spacing" textLength="623.3896" x="519" y="405.0339">&lt;async&gt; query_telemetry(source_id, start_time, end_time, format) -&gt; List[TelemetrySampleInfo]</text></g><g class="entity" data-entity="telemetry_db_reader_floating_note" data-source-line="117" data-uid="ent0034" id="entity_telemetry_db_reader_floating_note"><path d="M6,105 L6,150.412 A0,0 0 0 0 6,150.412 L194.98,150.412 L703.41,326.9 L202.98,150.412 L268.6832,150.412 A0,0 0 0 0 268.6832,150.412 L268.6832,115 L258.6832,105 L6,105 A0,0 0 0 0 6,105" fill="#FEFFDD" style="stroke:#181818;stroke-width:0.5;"/><path d="M258.6832,105 L258.6832,115 L268.6832,115 L258.6832,105" fill="#FEFFDD" style="stroke:#181818;stroke-width:0.5;"/><text fill="#000000" font-family="sans-serif" font-size="13" lengthAdjust="spacing" textLength="241.6832" x="12" y="123.897">&#1042;&#1099;&#1087;&#1086;&#1083;&#1103;&#1077;&#1090; &#1072;&#1089;&#1080;&#1085;&#1093;&#1088;&#1086;&#1085;&#1085;&#1086;&#1077; &#1095;&#1090;&#1077;&#1085;&#1080;&#1077; &#1080;&#1079; &#1041;&#1044;,</text><text fill="#000000" font-family="sans-serif" font-size="13" lengthAdjust="spacing" textLength="220.1162" x="12" y="141.603">&#1074;&#1086;&#1079;&#1074;&#1088;&#1072;&#1097;&#1072;&#1077;&#1090; &#1074;&#1099;&#1073;&#1086;&#1088;&#1082;&#1080; &#1090;&#1077;&#1083;&#1077;&#1084;&#1077;&#1090;&#1088;&#1080;&#1080;.</text></g><!--link TelemetryRouter to BaseTelemetryRouter--><g class="link" data-entity-1="TelemetryRouter" data-entity-2="BaseTelemetryRouter" data-source-line="22" data-uid="lnk4" id="link_TelemetryRouter_BaseTelemetryRouter"><path codeLine="22" d="M1137.08,127.5 C1167.36,127.5 1199.07,127.5 1239.86,127.5" fill="none" id="TelemetryRouter-to-BaseTelemetryRouter" style="stroke:#181818;stroke-width:1;"/><polygon fill="#181818" points="1245.86,127.5,1236.86,123.5,1240.86,127.5,1236.86,131.5,1245.86,127.5" style="stroke:#181818;stroke-width:1;"/><text fill="#000000" font-family="sans-serif" font-size="13" lengthAdjust="spacing" textLength="72.6311" x="1155.5" y="120.397">implements</text></g><!--link TelemetryRouter to MeasurementProcessInfo--><g class="link" data-entity-1="TelemetryRouter" data-entity-2="MeasurementProcessInfo" data-source-line="27" data-uid="lnk9" id="link_TelemetryRouter_MeasurementProcessInfo"><path codeLine="27" d="M1079.19,151.59 C1100.22,187.87 1140.63,260.91 1165.5,327 C1184.25,376.84 1185.56,390.69 1195.5,443 C1202.21,478.28 1206.6778,511.9156 1210.2778,544.8356" fill="none" id="TelemetryRouter-to-MeasurementProcessInfo" style="stroke:#181818;stroke-width:1;"/><polygon fill="#181818" points="1210.93,550.8,1213.9279,541.4185,1210.3865,545.8296,1205.9753,542.2882,1210.93,550.8" style="stroke:#181818;stroke-width:1;"/><text fill="#000000" font-family="sans-serif" font-size="13" lengthAdjust="spacing" textLength="47.6581" x="1190.5" y="375.397">imports</text></g><!--link TelemetrySampleInfo to BaseModel--><g class="link" data-entity-1="TelemetrySampleInfo" data-entity-2="BaseModel" data-source-line="35" data-uid="lnk11" id="link_TelemetrySampleInfo_BaseModel"><path codeLine="35" d="M740.97,840.08 C794.21,875.14 872.5189,926.7202 919.3989,957.5902" fill="none" id="TelemetrySampleInfo-to-BaseModel" style="stroke:#181818;stroke-width:1;"/><polygon fill="#181818" points="924.41,960.89,919.0932,952.5996,920.2341,958.1402,914.6934,959.2811,924.41,960.89" style="stroke:#181818;stroke-width:1;"/><text fill="#000000" font-family="sans-serif" font-size="13" lengthAdjust="spacing" textLength="46.397" x="842.5" y="902.897">inherits</text></g><!--link FloatTelemetrySampleInfo to TelemetrySampleInfo--><g class="link" data-entity-1="FloatTelemetrySampleInfo" data-entity-2="TelemetrySampleInfo" data-source-line="41" data-uid="lnk13" id="link_FloatTelemetrySampleInfo_TelemetrySampleInfo"><path codeLine="41" d="M888.59,656.04 C845.04,689.06 782.7804,736.2741 739.2204,769.3141" fill="none" id="FloatTelemetrySampleInfo-to-TelemetrySampleInfo" style="stroke:#181818;stroke-width:1;"/><polygon fill="#181818" points="734.44,772.94,744.0279,770.6881,738.4237,769.9184,739.1934,764.3141,734.44,772.94" style="stroke:#181818;stroke-width:1;"/><text fill="#000000" font-family="sans-serif" font-size="13" lengthAdjust="spacing" textLength="46.397" x="797.5" y="738.897">inherits</text></g><!--link BoolTelemetrySampleInfo to TelemetrySampleInfo--><g class="link" data-entity-1="BoolTelemetrySampleInfo" data-entity-2="TelemetrySampleInfo" data-source-line="47" data-uid="lnk15" id="link_BoolTelemetrySampleInfo_TelemetrySampleInfo"><path codeLine="47" d="M691.5,656.04 C691.5,689.06 691.5,733.9 691.5,766.94" fill="none" id="BoolTelemetrySampleInfo-to-TelemetrySampleInfo" style="stroke:#181818;stroke-width:1;"/><polygon fill="#181818" points="691.5,772.94,695.5,763.94,691.5,767.94,687.5,763.94,691.5,772.94" style="stroke:#181818;stroke-width:1;"/><text fill="#000000" font-family="sans-serif" font-size="13" lengthAdjust="spacing" textLength="46.397" x="692.5" y="738.897">inherits</text></g><!--link CustomTelemetrySampleInfo to TelemetrySampleInfo--><g class="link" data-entity-1="CustomTelemetrySampleInfo" data-entity-2="TelemetrySampleInfo" data-source-line="53" data-uid="lnk17" id="link_CustomTelemetrySampleInfo_TelemetrySampleInfo"><path codeLine="53" d="M483.06,653.15 C527.99,685.98 595.3558,735.2297 641.9058,769.2497" fill="none" id="CustomTelemetrySampleInfo-to-TelemetrySampleInfo" style="stroke:#181818;stroke-width:1;"/><polygon fill="#181818" points="646.75,772.79,641.8439,764.2501,642.7132,769.8398,637.1235,770.7091,646.75,772.79" style="stroke:#181818;stroke-width:1;"/><text fill="#000000" font-family="sans-serif" font-size="13" lengthAdjust="spacing" textLength="46.397" x="604.5" y="738.897">inherits</text></g><!--link MeasurementProcessInfo to BaseModel--><g class="link" data-entity-1="MeasurementProcessInfo" data-entity-2="BaseModel" data-source-line="63" data-uid="lnk18" id="link_MeasurementProcessInfo_BaseModel"><path codeLine="63" d="M1166.84,694.29 C1107.99,776.52 1017.6319,902.7708 979.7019,955.7708" fill="none" id="MeasurementProcessInfo-to-BaseModel" style="stroke:#181818;stroke-width:1;"/><polygon fill="#181818" points="976.21,960.65,984.7006,955.6591,979.1199,956.584,978.195,951.0032,976.21,960.65" style="stroke:#181818;stroke-width:1;"/><text fill="#000000" font-family="sans-serif" font-size="13" lengthAdjust="spacing" textLength="46.397" x="1110.5" y="811.897">inherits</text></g><!--link TelemetryRouter to TelemetrySampleInfo--><g class="link" data-entity-1="TelemetryRouter" data-entity-2="TelemetrySampleInfo" data-source-line="66" data-uid="lnk19" id="link_TelemetryRouter_TelemetrySampleInfo"><path codeLine="66" d="M993.83,128.41 C814.59,132.7 352.5,173.06 229.5,470 C191.4,561.98 178.26,608.65 229.5,694 C268.33,758.68 481.476,787.2923 603.476,798.6823" fill="none" id="TelemetryRouter-to-TelemetrySampleInfo" style="stroke:#181818;stroke-width:1;"/><polygon fill="#181818" points="609.45,799.24,600.8608,794.4207,604.4716,798.7752,600.1171,802.3861,609.45,799.24" style="stroke:#181818;stroke-width:1;"/><text fill="#000000" font-family="sans-serif" font-size="13" lengthAdjust="spacing" textLength="27.82" x="241.5" y="457.897">uses</text></g><!--link TelemetryRouter to TelemetryQueueDumper--><g class="link" data-entity-1="TelemetryRouter" data-entity-2="TelemetryQueueDumper" data-source-line="75" data-uid="lnk21" id="link_TelemetryRouter_TelemetryQueueDumper"><path codeLine="75" d="M1092.7,151.55 C1124,177.32 1177.66,219.22 1228.5,248 C1291.03,283.4 1360.3778,312.4479 1418.1378,334.2879" fill="none" id="TelemetryRouter-to-TelemetryQueueDumper" style="stroke:#181818;stroke-width:1;"/><polygon fill="#181818" points="1423.75,336.41,1416.7464,329.4854,1419.0732,334.6416,1413.917,336.9684,1423.75,336.41" style="stroke:#181818;stroke-width:1;"/><text fill="#000000" font-family="sans-serif" font-size="13" lengthAdjust="spacing" textLength="27.82" x="1321.5" y="292.897">uses</text></g><!--link telemetry_queue_dumper_floating_note to TelemetryQueueDumper--><g class="link" data-entity-1="telemetry_queue_dumper_floating_note" data-entity-2="TelemetryQueueDumper" data-source-line="84" data-uid="lnk23" id="link_telemetry_queue_dumper_floating_note_TelemetryQueueDumper"><path codeLine="84" d="M2153.74,177.11 C2123.31,216.67 2074.8,270.19 2018.5,297 C1903.5,351.76 1859.47,308.21 1733.5,327 C1714.9,329.77 1695.48,333.02 1676.22,336.47" fill="none" id="telemetry_queue_dumper_floating_note-TelemetryQueueDumper" style="stroke:#181818;stroke-width:1;stroke-dasharray:7.0,7.0;"/></g><!--link TelemetryRouter to TelemetryQueueReader--><g class="link" data-entity-1="TelemetryRouter" data-entity-2="TelemetryQueueReader" data-source-line="92" data-uid="lnk25" id="link_TelemetryRouter_TelemetryQueueReader"><path codeLine="92" d="M1088.85,151.51 C1118.58,179.32 1172.81,225.21 1228.5,248 C1253.34,258.17 1518.155,295.7094 1744.335,326.5494" fill="none" id="TelemetryRouter-to-TelemetryQueueReader" style="stroke:#181818;stroke-width:1;"/><polygon fill="#181818" points="1750.28,327.36,1741.9029,322.1808,1745.3258,326.6845,1740.8221,330.1074,1750.28,327.36" style="stroke:#181818;stroke-width:1;"/><text fill="#000000" font-family="sans-serif" font-size="13" lengthAdjust="spacing" textLength="27.82" x="1517.5" y="292.897">uses</text><text fill="#000000" font-family="sans-serif" font-size="13" lengthAdjust="spacing" textLength="7.436" x="1086.7767" y="173.4174">1</text><text fill="#000000" font-family="sans-serif" font-size="13" lengthAdjust="spacing" textLength="34.112" x="1708.5855" y="323.0651">many</text></g><!--link TelemetryQueueReader to TelemetrySampleInfo--><g class="link" data-entity-1="TelemetryQueueReader" data-entity-2="TelemetrySampleInfo" data-source-line="103" data-uid="lnk28" id="link_TelemetryQueueReader_TelemetrySampleInfo"><path codeLine="103" d="M1866.32,413.1 C1835.7,426.98 1806.84,445.45 1784.5,470 C1715.36,545.98 1805.11,626.69 1727.5,694 C1718.47,701.83 1023.2,772.2308 779.68,796.6708" fill="none" id="TelemetryQueueReader-to-TelemetrySampleInfo" style="stroke:#181818;stroke-width:1;"/><polygon fill="#181818" points="773.71,797.27,783.0645,800.3513,778.685,796.7707,782.2656,792.3913,773.71,797.27" style="stroke:#181818;stroke-width:1;"/><text fill="#000000" font-family="sans-serif" font-size="13" lengthAdjust="spacing" textLength="27.82" x="1785.5" y="627.897">uses</text></g><!--link TelemetryQueueDumper to telemetry_dto--><g class="link" data-entity-1="TelemetryQueueDumper" data-entity-2="telemetry_dto" data-source-line="104" data-uid="lnk29" id="link_TelemetryQueueDumper_telemetry_dto"><path codeLine="104" d="M1472.83,403.66 C1452.87,421.06 1430.95,444.19 1418.5,470 C1414.8763,477.515 1411.8717,485.4744 1409.3889,493.655 C1409.2337,494.1663 1409.0806,494.6784 1408.9294,495.1914 C1408.8539,495.4479 1410.4513,515.0103 1410.3767,515.2671" fill="none" id="TelemetryQueueDumper-to-telemetry_dto" style="stroke:#181818;stroke-width:1;"/><polygon fill="#181818" points="1408.7043,521.0293,1415.0544,513.501,1410.098,516.2275,1407.3715,511.2711,1408.7043,521.0293" style="stroke:#181818;stroke-width:1;"/><text fill="#000000" font-family="sans-serif" font-size="13" lengthAdjust="spacing" textLength="27.82" x="1434.5" y="457.897">uses</text></g><!--link TelemetryRouter to TelemetryDbReader--><g class="link" data-entity-1="TelemetryRouter" data-entity-2="TelemetryDbReader" data-source-line="112" data-uid="lnk31" id="link_TelemetryRouter_TelemetryDbReader"><path codeLine="112" d="M1042.3,151.56 C1001.72,191.89 917.31,275.77 866.01,326.75" fill="none" id="TelemetryRouter-TelemetryDbReader" style="stroke:#181818;stroke-width:1;"/><text fill="#000000" font-family="sans-serif" font-size="13" lengthAdjust="spacing" textLength="27.82" x="909.5" y="292.897">uses</text></g><!--link TelemetryDbReader to TelemetrySampleInfo--><g class="link" data-entity-1="TelemetryDbReader" data-entity-2="TelemetrySampleInfo" data-source-line="113" data-uid="lnk32" id="link_TelemetryDbReader_TelemetrySampleInfo"><path codeLine="113" d="M498.72,396.1 C402.52,410.7 314.72,433.72 284.5,470 C220.78,546.49 224.12,614.85 284.5,694 C323.72,745.4 496.3847,778.0515 603.5347,793.9115" fill="none" id="TelemetryDbReader-to-TelemetrySampleInfo" style="stroke:#181818;stroke-width:1;"/><polygon fill="#181818" points="609.47,794.79,601.1527,789.5153,604.5239,794.0579,599.9813,797.4291,609.47,794.79" style="stroke:#181818;stroke-width:1;"/><text fill="#000000" font-family="sans-serif" font-size="13" lengthAdjust="spacing" textLength="27.82" x="285.5" y="627.897">uses</text></g><!--link TelemetryDbReader to telemetry_dto--><g class="link" data-entity-1="TelemetryDbReader" data-entity-2="telemetry_dto" data-source-line="114" data-uid="lnk33" id="link_TelemetryDbReader_telemetry_dto"><path codeLine="114" d="M994.22,413.01 C1072.99,430.85 1168.02,450.21 1254.5,462 C1268.51,463.91 1371.2,460.32 1381.5,470 C1405.835,492.875 1410.8175,529.9325 1409.6025,561.67 C1409.4506,565.6372 1409.2019,569.5213 1408.8821,573.2841 C1408.8021,574.2248 1408.7177,575.1579 1408.6292,576.0829 C1408.6071,576.3141 1409.1713,570.5736 1409.1487,570.8038" fill="none" id="TelemetryDbReader-to-telemetry_dto" style="stroke:#181818;stroke-width:1;"/><polygon fill="#181818" points="1408.5621,576.7751,1413.4228,568.2092,1409.0509,571.799,1405.4611,567.4272,1408.5621,576.7751" style="stroke:#181818;stroke-width:1;"/><text fill="#000000" font-family="sans-serif" font-size="13" lengthAdjust="spacing" textLength="27.82" x="1255.5" y="457.897">uses</text></g><!--link TelemetryDbReader to telemetry_sqla_repo--><g class="link" data-entity-1="TelemetryDbReader" data-entity-2="telemetry_sqla_repo" data-source-line="126" data-uid="lnk37" id="link_TelemetryDbReader_telemetry_sqla_repo"><path codeLine="126" d="M1109.78,413.02 C1168.65,422.33 1230.16,432.56 1287.5,443 C1294.7,444.31 1410.44,465.88 1416.5,470 C1461.46,500.55 1488.9085,553.1915 1503.5385,587.8815" fill="none" id="TelemetryDbReader-to-telemetry_sqla_repo" style="stroke:#181818;stroke-width:1;"/><polygon fill="#181818" points="1505.87,593.41,1506.0583,583.5629,1503.927,588.8029,1498.687,586.6717,1505.87,593.41" style="stroke:#181818;stroke-width:1;"/><text fill="#000000" font-family="sans-serif" font-size="13" lengthAdjust="spacing" textLength="27.82" x="1384.5" y="457.897">uses</text></g><!--link TelemetryQueueDumper to telemetry_sqla_repo--><g class="link" data-entity-1="TelemetryQueueDumper" data-entity-2="telemetry_sqla_repo" data-source-line="127" data-uid="lnk38" id="link_TelemetryQueueDumper_telemetry_sqla_repo"><path codeLine="127" d="M1516.5,403.75 C1516.5,453.35 1516.5,540.67 1516.5,587.38" fill="none" id="TelemetryQueueDumper-to-telemetry_sqla_repo" style="stroke:#181818;stroke-width:1;"/><polygon fill="#181818" points="1516.5,593.38,1520.5,584.38,1516.5,588.38,1512.5,584.38,1516.5,593.38" style="stroke:#181818;stroke-width:1;"/><text fill="#000000" font-family="sans-serif" font-size="13" lengthAdjust="spacing" textLength="27.82" x="1517.5" y="457.897">uses</text></g><!--link TelemetryQueueDumper to telemetry_queue_utils--><g class="link" data-entity-1="TelemetryQueueDumper" data-entity-2="telemetry_queue_utils" data-source-line="134" data-uid="lnk40" id="link_TelemetryQueueDumper_telemetry_queue_utils"><path codeLine="134" d="M1556.98,403.8 C1576.85,421.64 1599.82,445.12 1615.5,470 C1671.77,559.32 1619.53,619.67 1694.5,694 C1758.25,757.21 1853.4488,783.6608 1925.9688,795.5308" fill="none" id="TelemetryQueueDumper-to-telemetry_queue_utils" style="stroke:#181818;stroke-width:1;"/><polygon fill="#181818" points="1931.89,796.5,1923.6543,791.0988,1926.9557,795.6924,1922.3621,798.9937,1931.89,796.5" style="stroke:#181818;stroke-width:1;"/><text fill="#000000" font-family="sans-serif" font-size="13" lengthAdjust="spacing" textLength="27.82" x="1695.5" y="627.897">uses</text></g><!--link TelemetryQueueReader to telemetry_queue_utils--><g class="link" data-entity-1="TelemetryQueueReader" data-entity-2="telemetry_queue_utils" data-source-line="135" data-uid="lnk41" id="link_TelemetryQueueReader_telemetry_queue_utils"><path codeLine="135" d="M2253.13,413.04 C2279.66,426.93 2303.58,445.42 2320.5,470 C2376.95,552.01 2377.37,612.29 2320.5,694 C2272.75,762.61 2183.5587,788.2445 2112.9587,798.4145" fill="none" id="TelemetryQueueReader-to-telemetry_queue_utils" style="stroke:#181818;stroke-width:1;"/><polygon fill="#181818" points="2107.02,799.27,2116.4984,801.9459,2111.9689,798.5571,2115.3577,794.0277,2107.02,799.27" style="stroke:#181818;stroke-width:1;"/><text fill="#000000" font-family="sans-serif" font-size="13" lengthAdjust="spacing" textLength="27.82" x="2363.5" y="627.897">uses</text></g></g></svg>